<svg xmlns="http://www.w3.org/2000/svg" width="156" height="40" viewBox="0 0 156 40" fill="none"><g clip-path="url(#clip0_2169_2293)"><path d="M143.577 0.00013H12.4299C11.9518 0.00013 11.4795 0.00013 11.0027 0.00212999C10.6036 0.00412999 10.2077 0.00993997 9.80475 0.01483C8.92936 0.0227317 8.05604 0.081806 7.19236 0.191539C6.3299 0.303662 5.49446 0.515044 4.71428 0.818537C3.93507 1.1246 3.22307 1.52229 2.60413 1.99719C1.98194 2.47076 1.4633 3.01814 1.06815 3.61828C0.671901 4.21723 0.397144 4.85905 0.253364 5.52159C0.108217 6.1833 0.0301122 6.85263 0.0197503 7.52359C0.00765242 7.83018 0.00637485 8.1378 0 8.44444V31.5586C0.00637485 31.8691 0.00765242 32.1699 0.0197503 32.4805C0.0301154 33.1514 0.10822 33.8207 0.253364 34.4824C0.396747 35.1453 0.67152 35.7875 1.06815 36.3867C1.46312 36.9849 1.98184 37.5301 2.60413 38.001C3.22072 38.478 3.93318 38.876 4.71428 39.1797C5.49445 39.484 6.3298 39.6967 7.19236 39.8105C8.05619 39.9194 8.92942 39.9785 9.80475 39.9873C10.2077 39.9941 10.6036 39.998 11.0027 39.998C11.4795 40 11.9519 40 12.4299 40H143.577C144.046 40 144.522 40 144.99 39.998C145.388 39.998 145.795 39.9941 146.192 39.9873C147.066 39.9789 147.937 39.9198 148.799 39.8105C149.665 39.6959 150.503 39.4833 151.287 39.1797C152.067 38.8758 152.779 38.4779 153.395 38.001C154.016 37.5282 154.536 36.9835 154.936 36.3867C155.329 35.7871 155.602 35.145 155.743 34.4824C155.888 33.8207 155.969 33.1515 155.985 32.4805C155.99 32.1699 155.99 31.8691 155.99 31.5586C156 31.1953 156 30.834 156 30.4648V9.53623C156 9.17002 156 8.80674 155.99 8.44444C155.99 8.1378 155.99 7.83018 155.985 7.52355C155.969 6.85253 155.888 6.18335 155.743 5.52155C155.601 4.8594 155.329 4.21762 154.936 3.61824C154.131 2.41532 152.855 1.43615 151.287 0.818447C150.503 0.515696 149.665 0.304369 148.799 0.191449C147.938 0.0812325 147.066 0.0221377 146.192 0.01469C145.795 0.00980997 145.388 0.00394999 144.99 0.00199999C144.522 0 144.046 0.00013 143.577 0.00013Z" fill="#A6A6A6"></path><path d="M11.0794 38.998C10.6826 38.998 10.2954 38.9941 9.90175 38.9874C9.08624 38.9793 8.27263 38.9251 7.4676 38.8254C6.71696 38.7267 5.98978 38.5433 5.31006 38.2811C4.63658 38.021 4.0223 37.68 3.49078 37.2712C2.95155 36.8671 2.50263 36.3985 2.16178 35.8839C1.81719 35.3659 1.5787 34.8107 1.45465 34.2376C1.32067 33.6218 1.24819 32.9991 1.23782 32.3749C1.22956 32.1654 1.21875 31.4679 1.21875 31.4679V8.51947C1.21875 8.51947 1.23026 7.83262 1.23788 7.63083C1.24781 7.00764 1.31988 6.38594 1.45345 5.77109C1.57774 5.19642 1.8164 4.63961 2.16119 4.11994C2.50077 3.60566 2.94721 3.13669 3.48318 2.7312C4.01855 2.32186 4.63479 1.97911 5.30942 1.71547C5.98758 1.45408 6.71338 1.27193 7.46251 1.17511C8.27018 1.07434 9.08661 1.01986 9.90495 1.01213L11.08 1H144.914L146.103 1.01262C146.914 1.01997 147.723 1.07396 148.523 1.17414C149.28 1.27217 150.013 1.45559 150.699 1.71838C152.05 2.2497 153.15 3.0903 153.844 4.12236C154.183 4.63845 154.418 5.19072 154.541 5.76042C154.676 6.38031 154.752 7.0069 154.767 7.6352C154.771 7.91653 154.771 8.21873 154.771 8.51947C154.781 8.892 154.781 9.24658 154.781 9.60407V30.3949C154.781 30.7558 154.781 31.1079 154.771 31.463C154.771 31.786 154.771 32.082 154.766 32.3866C154.751 33.0036 154.676 33.619 154.543 34.2278C154.422 34.8051 154.185 35.3646 153.84 35.8868C153.497 36.3959 153.05 36.8605 152.517 37.2634C151.985 37.6745 151.37 38.0175 150.695 38.2792C150.011 38.5434 149.279 38.7275 148.523 38.8254C147.718 38.9257 146.904 38.9798 146.089 38.9874C145.707 38.9941 145.308 38.998 144.92 38.998L143.508 39L11.0794 38.998Z" fill="black"></path><path d="M24.77 20.3003C24.7807 19.4657 25.0024 18.6473 25.4145 17.9213C25.8265 17.1954 26.4155 16.5854 27.1266 16.1483C26.6748 15.5031 26.0789 14.9722 25.386 14.5976C24.6932 14.2231 23.9226 14.0152 23.1354 13.9906C21.4562 13.8143 19.8282 14.9954 18.9725 14.9954C18.1002 14.9954 16.7827 14.0081 15.364 14.0373C14.4463 14.0669 13.552 14.3338 12.7681 14.8118C11.9842 15.2899 11.3375 15.9629 10.8911 16.7651C8.95703 20.1136 10.3997 25.0346 12.2523 27.7412C13.1792 29.0666 14.2625 30.547 15.6799 30.4945C17.067 30.437 17.585 29.61 19.2593 29.61C20.9181 29.61 21.4041 30.4945 22.8503 30.4611C24.3387 30.437 25.2764 29.1299 26.1708 27.792C26.8368 26.8476 27.3493 25.8039 27.6892 24.6995C26.8245 24.3338 26.0866 23.7216 25.5675 22.9393C25.0484 22.157 24.771 21.2392 24.77 20.3003Z" fill="white"></path><path d="M22.0357 12.2113C22.8472 11.2371 23.247 9.98494 23.1502 8.7207C21.9104 8.85092 20.7651 9.44348 19.9426 10.3803C19.5405 10.838 19.2325 11.3704 19.0362 11.9472C18.84 12.524 18.7593 13.1337 18.7989 13.7417C19.419 13.7481 20.0325 13.6137 20.5932 13.3486C21.1539 13.0835 21.6471 12.6946 22.0357 12.2113Z" fill="white"></path><path d="M42.3008 27.1397H37.5674L36.4307 30.4961H34.4258L38.9092 18.0781H40.9922L45.4756 30.4961H43.4366L42.3008 27.1397ZM38.0577 25.5908H41.8097L39.9601 20.1436H39.9083L38.0577 25.5908Z" fill="white"></path><path d="M55.1612 25.9695C55.1612 28.7829 53.6553 30.5905 51.3829 30.5905C50.8072 30.6207 50.2347 30.4881 49.7309 30.2079C49.2271 29.9278 48.8124 29.5114 48.5342 29.0065H48.4912V33.4909H46.6328V21.4421H48.4317V22.948H48.4659C48.7568 22.4455 49.1786 22.0313 49.6862 21.7495C50.1938 21.4676 50.7684 21.3287 51.3487 21.3474C53.6465 21.3474 55.1612 23.1638 55.1612 25.9695ZM53.251 25.9695C53.251 24.1365 52.3038 22.9314 50.8585 22.9314C49.4385 22.9314 48.4835 24.1618 48.4835 25.9695C48.4835 27.7937 49.4385 29.0154 50.8585 29.0154C52.3038 29.0154 53.251 27.8191 53.251 25.9695Z" fill="white"></path><path d="M65.126 25.9694C65.126 28.7829 63.6202 30.5905 61.3477 30.5905C60.7721 30.6206 60.1996 30.488 59.6958 30.2079C59.192 29.9278 58.7773 29.5114 58.4991 29.0065H58.4561V33.4909H56.5977V21.4421H58.3965V22.948H58.4307C58.7216 22.4455 59.1434 22.0313 59.651 21.7495C60.1586 21.4676 60.7332 21.3287 61.3135 21.3474C63.6114 21.3474 65.126 23.1638 65.126 25.9694ZM63.2159 25.9694C63.2159 24.1364 62.2686 22.9314 60.8233 22.9314C59.4034 22.9314 58.4483 24.1618 58.4483 25.9694C58.4483 27.7937 59.4034 29.0153 60.8233 29.0153C62.2686 29.0153 63.2159 27.8191 63.2159 25.9694Z" fill="white"></path><path d="M71.711 27.0362C71.8487 28.2676 73.045 29.0762 74.6797 29.0762C76.2461 29.0762 77.3731 28.2676 77.3731 27.1572C77.3731 26.1934 76.6934 25.6162 75.084 25.2207L73.4747 24.833C71.1944 24.2822 70.1358 23.2158 70.1358 21.4854C70.1358 19.3428 72.003 17.8711 74.6543 17.8711C77.2783 17.8711 79.0772 19.3428 79.1377 21.4854H77.2617C77.1494 20.2461 76.125 19.4981 74.6279 19.4981C73.1309 19.4981 72.1065 20.2549 72.1065 21.3565C72.1065 22.2344 72.7608 22.751 74.3613 23.1465L75.7295 23.4824C78.2774 24.0849 79.336 25.1084 79.336 26.9248C79.336 29.248 77.4854 30.7031 74.542 30.7031C71.7881 30.7031 69.9287 29.2822 69.8086 27.0361L71.711 27.0362Z" fill="white"></path><path d="M83.3477 19.3008V21.4434H85.0694V22.915H83.3477V27.9062C83.3477 28.6816 83.6924 29.043 84.4492 29.043C84.6536 29.0394 84.8577 29.0251 85.0606 29V30.4629C84.7203 30.5264 84.3744 30.5552 84.0283 30.5488C82.1953 30.5488 81.4805 29.8603 81.4805 28.1045V22.915H80.1641V21.4434H81.4805V19.3008H83.3477Z" fill="white"></path><path d="M86.0625 25.9707C86.0625 23.1221 87.7403 21.332 90.3565 21.332C92.9815 21.332 94.6514 23.122 94.6514 25.9707C94.6514 28.8272 92.9903 30.6094 90.3565 30.6094C87.7236 30.6094 86.0625 28.8271 86.0625 25.9707ZM92.7578 25.9707C92.7578 24.0166 91.8623 22.8633 90.3565 22.8633C88.8506 22.8633 87.9561 24.0254 87.9561 25.9707C87.9561 27.9326 88.8506 29.0772 90.3565 29.0772C91.8623 29.0772 92.7578 27.9326 92.7578 25.9707Z" fill="white"></path><path d="M96.1875 21.442H97.96V22.983H98.003C98.1229 22.5017 98.4049 22.0764 98.8015 21.7785C99.1981 21.4806 99.6851 21.3284 100.181 21.3473C100.395 21.3465 100.609 21.3698 100.818 21.4166V23.1549C100.548 23.0723 100.266 23.0343 99.9825 23.0426C99.7125 23.0316 99.4433 23.0792 99.1935 23.1821C98.9436 23.285 98.719 23.4408 98.535 23.6386C98.3511 23.8365 98.2121 24.0719 98.1277 24.3286C98.0432 24.5852 98.0154 24.8571 98.0459 25.1256V30.4957H96.1875V21.442Z" fill="white"></path><path d="M109.386 27.8379C109.136 29.4814 107.536 30.6094 105.488 30.6094C102.854 30.6094 101.219 28.8447 101.219 26.0137C101.219 23.1738 102.863 21.332 105.41 21.332C107.915 21.332 109.49 23.0527 109.49 25.7978V26.4346H103.095V26.5469C103.066 26.8801 103.107 27.2157 103.218 27.5316C103.328 27.8474 103.504 28.1362 103.734 28.3787C103.965 28.6213 104.244 28.8121 104.554 28.9384C104.863 29.0647 105.197 29.1236 105.531 29.1113C105.97 29.1525 106.411 29.0508 106.787 28.8213C107.164 28.5919 107.457 28.247 107.622 27.8379H109.386ZM103.104 25.1357H107.63C107.647 24.8361 107.602 24.5363 107.497 24.2551C107.392 23.9739 107.231 23.7174 107.022 23.5016C106.814 23.2858 106.563 23.1155 106.285 23.0013C106.008 22.8871 105.71 22.8314 105.41 22.8379C105.107 22.8361 104.807 22.8942 104.527 23.009C104.247 23.1237 103.992 23.2928 103.778 23.5064C103.564 23.72 103.394 23.974 103.278 24.2537C103.162 24.5333 103.103 24.8331 103.104 25.1357Z" fill="white"></path><path d="M37.8272 8.73138C38.2168 8.70342 38.6077 8.76228 38.9719 8.90371C39.336 9.04515 39.6642 9.26563 39.9327 9.54925C40.2013 9.83288 40.4036 10.1726 40.525 10.5438C40.6464 10.9151 40.6839 11.3087 40.6348 11.6962C40.6348 13.6025 39.6045 14.6982 37.8272 14.6982H35.6719V8.73138H37.8272ZM36.5986 13.8544H37.7236C38.0021 13.871 38.2807 13.8254 38.5392 13.7208C38.7977 13.6161 39.0297 13.4552 39.2182 13.2496C39.4067 13.0441 39.547 12.7991 39.6288 12.5324C39.7107 12.2658 39.7321 11.9843 39.6914 11.7084C39.7291 11.4335 39.7056 11.1538 39.6225 10.8891C39.5393 10.6244 39.3987 10.3814 39.2106 10.1775C39.0226 9.97358 38.7917 9.81378 38.5347 9.70954C38.2776 9.6053 38.0006 9.55922 37.7236 9.57459H36.5986V13.8544Z" fill="white"></path><path d="M41.6819 12.4458C41.6535 12.1498 41.6874 11.8513 41.7812 11.5692C41.8751 11.2871 42.0268 11.0278 42.2268 10.8078C42.4267 10.5878 42.6704 10.4121 42.9423 10.2918C43.2141 10.1715 43.5081 10.1094 43.8054 10.1094C44.1027 10.1094 44.3966 10.1715 44.6685 10.2918C44.9404 10.4121 45.1841 10.5878 45.384 10.8078C45.5839 11.0278 45.7357 11.2871 45.8295 11.5692C45.9234 11.8513 45.9572 12.1498 45.9289 12.4458C45.9578 12.742 45.9243 13.041 45.8307 13.3235C45.7371 13.606 45.5855 13.8658 45.3855 14.0862C45.1855 14.3067 44.9416 14.4828 44.6695 14.6033C44.3973 14.7239 44.103 14.7861 43.8054 14.7861C43.5078 14.7861 43.2134 14.7239 42.9413 14.6033C42.6692 14.4828 42.4253 14.3067 42.2253 14.0862C42.0253 13.8658 41.8736 13.606 41.78 13.3235C41.6865 13.041 41.653 12.742 41.6819 12.4458ZM45.0149 12.4458C45.0149 11.4697 44.5764 10.8989 43.8069 10.8989C43.0344 10.8989 42.5999 11.4697 42.5999 12.4458C42.5999 13.4297 43.0344 13.9961 43.8069 13.9961C44.5764 13.996 45.0149 13.4257 45.0149 12.4458Z" fill="white"></path><path d="M51.5742 14.6982H50.6524L49.7217 11.3818H49.6514L48.7246 14.6982H47.8115L46.5703 10.1953H47.4717L48.2783 13.6313H48.3448L49.2705 10.1953H50.1231L51.0489 13.6313H51.1192L51.9219 10.1953H52.8106L51.5742 14.6982Z" fill="white"></path><path d="M53.8516 10.1949H54.7071V10.9102H54.7735C54.8861 10.6533 55.0762 10.4379 55.317 10.2941C55.5579 10.1503 55.8376 10.0852 56.1172 10.1079C56.3363 10.0915 56.5563 10.1245 56.7609 10.2046C56.9655 10.2847 57.1495 10.4098 57.2992 10.5707C57.4489 10.7315 57.5604 10.924 57.6256 11.1338C57.6908 11.3436 57.708 11.5654 57.6758 11.7827V14.6977H56.7872V12.0059C56.7872 11.2823 56.4727 10.9224 55.8155 10.9224C55.6667 10.9155 55.5182 10.9408 55.3802 10.9966C55.2421 11.0525 55.1178 11.1375 55.0156 11.2459C54.9135 11.3543 54.836 11.4834 54.7885 11.6246C54.741 11.7657 54.7245 11.9154 54.7403 12.0635V14.6978H53.8516V10.1949Z" fill="white"></path><path d="M59.0938 8.4375H59.9823V14.6982H59.0938V8.4375Z" fill="white"></path><path d="M61.217 12.4439C61.1888 12.1479 61.2226 11.8494 61.3165 11.5673C61.4104 11.2852 61.5621 11.0259 61.7621 10.8059C61.9621 10.5859 62.2058 10.4101 62.4777 10.2898C62.7495 10.1696 63.0435 10.1074 63.3408 10.1074C63.6381 10.1074 63.9321 10.1696 64.204 10.2898C64.4759 10.4101 64.7196 10.5859 64.9195 10.8059C65.1195 11.0259 65.2713 11.2852 65.3651 11.5673C65.459 11.8494 65.4929 12.1479 65.4646 12.4439C65.4934 12.7401 65.4599 13.0391 65.3663 13.3216C65.2727 13.6042 65.121 13.864 64.921 14.0844C64.721 14.3048 64.4771 14.4809 64.2049 14.6014C63.9328 14.722 63.6385 14.7842 63.3408 14.7842C63.0432 14.7842 62.7488 14.722 62.4767 14.6014C62.2046 14.4809 61.9607 14.3048 61.7607 14.0844C61.5606 13.864 61.409 13.6042 61.3153 13.3216C61.2217 13.0391 61.1882 12.7401 61.217 12.4439ZM64.55 12.4439C64.55 11.4678 64.1116 10.897 63.342 10.897C62.5696 10.897 62.135 11.4678 62.135 12.4439C62.135 13.4278 62.5696 13.9942 63.342 13.9942C64.1116 13.9942 64.55 13.4239 64.55 12.4439Z" fill="white"></path><path d="M66.4023 13.4258C66.4023 12.6152 67.0058 12.1479 68.0771 12.0815L69.2968 12.0112V11.6226C69.2968 11.147 68.9824 10.8784 68.3749 10.8784C67.8788 10.8784 67.5351 11.0605 67.4365 11.3789H66.5761C66.6669 10.6055 67.3945 10.1094 68.416 10.1094C69.5449 10.1094 70.1816 10.6714 70.1816 11.6226V14.6992H69.3261V14.0664H69.2558C69.1131 14.2934 68.9127 14.4784 68.6751 14.6027C68.4374 14.7269 68.1711 14.7858 67.9033 14.7734C67.7142 14.7931 67.5232 14.7729 67.3424 14.7142C67.1616 14.6555 66.9952 14.5596 66.8538 14.4326C66.7124 14.3056 66.5991 14.1504 66.5214 13.977C66.4436 13.8036 66.403 13.6158 66.4023 13.4258ZM69.2968 13.041V12.6645L68.1972 12.7349C67.5771 12.7764 67.2958 12.9873 67.2958 13.3843C67.2958 13.7895 67.6474 14.0254 68.1308 14.0254C68.2725 14.0397 68.4156 14.0254 68.5516 13.9833C68.6876 13.9412 68.8137 13.8722 68.9225 13.7804C69.0313 13.6885 69.1205 13.5757 69.1848 13.4487C69.2491 13.3217 69.2872 13.183 69.2968 13.041Z" fill="white"></path><path d="M71.3477 12.4448C71.3477 11.022 72.0792 10.1206 73.2169 10.1206C73.4983 10.1077 73.7776 10.1751 74.0221 10.315C74.2666 10.4548 74.4663 10.6615 74.5977 10.9106H74.6642V8.4375H75.5528V14.6982H74.7013V13.9868H74.631C74.4893 14.2343 74.2827 14.4383 74.0335 14.5768C73.7842 14.7153 73.5018 14.783 73.2169 14.7724C72.0714 14.7725 71.3477 13.8711 71.3477 12.4448ZM72.2657 12.4448C72.2657 13.3999 72.7159 13.9746 73.4689 13.9746C74.2179 13.9746 74.6808 13.3916 74.6808 12.4487C74.6808 11.5103 74.213 10.919 73.4689 10.919C72.7208 10.919 72.2657 11.4976 72.2657 12.4448Z" fill="white"></path><path d="M79.2288 12.4458C79.2005 12.1498 79.2343 11.8513 79.3282 11.5692C79.422 11.2871 79.5738 11.0278 79.7737 10.8078C79.9736 10.5878 80.2173 10.4121 80.4892 10.2918C80.761 10.1715 81.055 10.1094 81.3523 10.1094C81.6496 10.1094 81.9436 10.1715 82.2154 10.2918C82.4873 10.4121 82.731 10.5878 82.9309 10.8078C83.1309 11.0278 83.2826 11.2871 83.3765 11.5692C83.4703 11.8513 83.5042 12.1498 83.4758 12.4458C83.5047 12.742 83.4712 13.041 83.3776 13.3235C83.2841 13.606 83.1324 13.8658 82.9324 14.0862C82.7324 14.3067 82.4885 14.4828 82.2164 14.6033C81.9443 14.7239 81.6499 14.7861 81.3523 14.7861C81.0547 14.7861 80.7603 14.7239 80.4882 14.6033C80.2161 14.4828 79.9722 14.3067 79.7722 14.0862C79.5722 13.8658 79.4206 13.606 79.327 13.3235C79.2334 13.041 79.1999 12.742 79.2288 12.4458ZM82.5618 12.4458C82.5618 11.4697 82.1233 10.8989 81.3538 10.8989C80.5813 10.8989 80.1468 11.4697 80.1468 12.4458C80.1468 13.4297 80.5813 13.9961 81.3538 13.9961C82.1233 13.996 82.5618 13.4257 82.5618 12.4458Z" fill="white"></path><path d="M84.668 10.1949H85.5235V10.9102H85.5899C85.7026 10.6533 85.8926 10.4379 86.1334 10.2941C86.3743 10.1503 86.6541 10.0852 86.9337 10.1079C87.1528 10.0915 87.3728 10.1245 87.5774 10.2046C87.782 10.2847 87.9659 10.4098 88.1156 10.5707C88.2653 10.7315 88.3769 10.924 88.4421 11.1338C88.5073 11.3436 88.5244 11.5654 88.4923 11.7827V14.6977H87.6036V12.0059C87.6036 11.2823 87.2891 10.9224 86.6319 10.9224C86.4832 10.9155 86.3346 10.9408 86.1966 10.9966C86.0585 11.0525 85.9342 11.1375 85.8321 11.2459C85.7299 11.3543 85.6525 11.4834 85.6049 11.6246C85.5574 11.7657 85.5409 11.9154 85.5567 12.0635V14.6978H84.668V10.1949Z" fill="white"></path><path d="M93.5147 9.07422V10.2158H94.4903V10.9644H93.5147V13.2798C93.5147 13.7515 93.7091 13.958 94.1515 13.958C94.2647 13.9576 94.3779 13.9508 94.4903 13.9375V14.6777C94.3307 14.7063 94.169 14.7215 94.0069 14.7231C93.0186 14.7231 92.6251 14.3755 92.6251 13.5073V10.9643H91.9102V10.2158H92.6251V9.07422H93.5147Z" fill="white"></path><path d="M95.7031 8.4375H96.5839V10.919H96.6543C96.7724 10.6596 96.9676 10.443 97.2133 10.2987C97.459 10.1543 97.7432 10.0893 98.0273 10.1123C98.2452 10.1004 98.4631 10.1368 98.6654 10.2189C98.8677 10.3009 99.0493 10.4266 99.1975 10.5869C99.3456 10.7473 99.4565 10.9383 99.5223 11.1465C99.5881 11.3546 99.6071 11.5747 99.578 11.791V14.6982H98.6885V12.0103C98.6885 11.291 98.3535 10.9268 97.7256 10.9268C97.5728 10.9142 97.4192 10.9352 97.2754 10.9883C97.1317 11.0413 97.0012 11.1252 96.8932 11.2339C96.7852 11.3426 96.7023 11.4737 96.6502 11.6178C96.5982 11.7619 96.5782 11.9157 96.5918 12.0683V14.6982H95.7031V8.4375Z" fill="white"></path><path d="M104.761 13.4815C104.641 13.8931 104.379 14.249 104.022 14.4872C103.666 14.7253 103.237 14.8305 102.81 14.7842C102.514 14.7921 102.219 14.7353 101.946 14.6177C101.674 14.5002 101.43 14.3248 101.232 14.1036C101.034 13.8825 100.887 13.6209 100.8 13.3371C100.713 13.0533 100.69 12.754 100.73 12.46C100.691 12.1652 100.715 11.8652 100.801 11.5805C100.888 11.2959 101.035 11.0331 101.231 10.81C101.428 10.587 101.671 10.4088 101.943 10.2876C102.214 10.1664 102.509 10.105 102.806 10.1075C104.059 10.1075 104.815 10.9635 104.815 12.3775V12.6876H101.635V12.7374C101.621 12.9026 101.642 13.069 101.696 13.2257C101.751 13.3825 101.837 13.5262 101.95 13.6476C102.063 13.7691 102.2 13.8656 102.352 13.931C102.504 13.9964 102.669 14.0292 102.835 14.0274C103.047 14.0529 103.263 14.0146 103.453 13.9174C103.644 13.8202 103.802 13.6685 103.906 13.4815H104.761ZM101.635 12.0303H103.91C103.921 11.8792 103.9 11.7274 103.85 11.5847C103.799 11.442 103.718 11.3115 103.614 11.2016C103.51 11.0918 103.383 11.005 103.243 10.9468C103.103 10.8886 102.953 10.8604 102.801 10.8638C102.648 10.8619 102.495 10.8908 102.353 10.9487C102.21 11.0067 102.081 11.0925 101.972 11.2012C101.864 11.3099 101.778 11.4393 101.72 11.5817C101.662 11.7241 101.633 11.8766 101.635 12.0303Z" fill="white"></path></g><defs><clipPath id="clip0_2169_2293"><rect width="156" height="40" fill="white"></rect></clipPath></defs></svg>