<svg xmlns="http://www.w3.org/2000/svg" width="138" height="138" viewBox="0 0 138 138" fill="none"><path d="M129.683 51.8503H126.241V43.718C126.241 35.459 119.515 28.7397 111.248 28.7397H83.1753L78.474 48.3965H112.352L70.8789 108.821H111.248C119.515 108.821 126.241 102.102 126.241 93.8426V85.7185H129.682C134.217 85.7185 137.905 82.0326 137.905 77.5017V60.0587C137.906 55.5325 134.217 51.8503 129.683 51.8503Z" fill="url(#paint0_linear_2075_367)"></path><path d="M26.5625 82.4998H56.231L49.9307 108.822L43.048 137.578L62.7848 108.822L99.6778 55.0703H70.0165L76.3134 28.7407L83.187 0L26.5625 82.4998Z" fill="url(#paint1_linear_2075_367)"></path><path d="M47.7727 89.1736H13.8895L55.3675 28.7417H14.993C6.72566 28.7417 0 35.4607 0 43.7197V93.8446C0 102.104 6.72566 108.823 14.993 108.823H43.0698L47.7727 89.1736Z" fill="url(#paint2_linear_2075_367)"></path><defs><linearGradient id="paint0_linear_2075_367" x1="104.392" y1="28.7397" x2="104.392" y2="108.821" gradientUnits="userSpaceOnUse"><stop stop-color="#828088"></stop><stop offset="1" stop-color="#5C5A63"></stop></linearGradient><linearGradient id="paint1_linear_2075_367" x1="63.1202" y1="0" x2="63.1202" y2="137.578" gradientUnits="userSpaceOnUse"><stop stop-color="#B5FF7B"></stop><stop offset="1" stop-color="#B5FF7B" stop-opacity="0.1"></stop></linearGradient><linearGradient id="paint2_linear_2075_367" x1="27.6838" y1="28.7417" x2="27.6838" y2="108.823" gradientUnits="userSpaceOnUse"><stop stop-color="#828088"></stop><stop offset="1" stop-color="#5C5A63"></stop></linearGradient></defs></svg>