<svg xmlns="http://www.w3.org/2000/svg" width="25" height="32" viewBox="0 0 25 32" fill="none"><path d="M20.4313 31.9866C20.2897 31.9868 20.1496 31.959 20.0188 31.9048C19.8881 31.8506 19.7693 31.7711 19.6694 31.6709L17.6698 29.6718C14.5426 32.77 15.2587 32.7815 12.1405 29.6735C9.0162 32.7929 9.73082 32.7577 6.61115 29.6719L4.61159 31.6709C4.40993 31.8728 4.13638 31.9864 3.85103 31.9867C3.56569 31.987 3.2919 31.874 3.08982 31.6725C3.08443 31.6663 0.318087 28.9128 0.312537 28.9089C0.212729 28.8087 0.133732 28.6892 0.0800955 28.5584C0.026459 28.4275 -0.000756731 28.2874 1.6005e-05 28.1459V3.54922C0.00108535 2.60832 0.375296 1.70626 1.04056 1.0409C1.70583 0.375537 2.60784 0.00120077 3.54874 0H20.7323C21.6732 0.00120077 22.5752 0.375537 23.2404 1.0409C23.9057 1.70626 24.2799 2.60832 24.281 3.54922C24.2799 3.58783 24.283 28.1526 24.2799 28.188C24.2708 28.4589 24.1595 28.7162 23.9684 28.9084L23.9631 28.9131L21.1911 31.6725C21.0914 31.7723 20.9729 31.8514 20.8425 31.9053C20.7121 31.9592 20.5724 31.9869 20.4313 31.9866ZM12.1405 27.0719C12.282 27.0718 12.4222 27.0996 12.5529 27.1538C12.6837 27.208 12.8024 27.2875 12.9024 27.3877L14.9019 29.3867C18.03 26.2863 17.3156 26.2807 20.4333 29.3867L22.1256 27.7019V3.54922C22.1253 3.17972 21.9784 2.82544 21.7171 2.56411C21.4559 2.30279 21.1017 2.15577 20.7322 2.15531H3.54867C3.17916 2.15577 2.82494 2.30279 2.5637 2.56411C2.30247 2.82544 2.15558 3.17972 2.15526 3.54922V27.7018L3.84751 29.3867C6.97301 26.2681 6.25728 26.298 9.37892 29.3867L11.3785 27.3876C11.4784 27.2874 11.5972 27.2079 11.728 27.1537C11.8587 27.0996 11.9989 27.0718 12.1405 27.0719ZM15.5523 25.0061H8.7286C8.44543 25.0021 8.17521 24.8868 7.97637 24.6851C7.77754 24.4834 7.66607 24.2116 7.66607 23.9284C7.66607 23.6452 7.77754 23.3734 7.97637 23.1717C8.17521 22.97 8.44543 22.8547 8.7286 22.8507H15.5523C15.8356 22.8546 16.1059 22.9699 16.3048 23.1716C16.5037 23.3733 16.6152 23.6451 16.6152 23.9284C16.6152 24.2117 16.5037 24.4836 16.3048 24.6852C16.1059 24.8869 15.8356 25.0022 15.5523 25.0061ZM18.4611 21.0385H5.81975C5.53671 21.0343 5.26668 20.9189 5.068 20.7173C4.86933 20.5156 4.75796 20.2439 4.75796 19.9609C4.75796 19.6778 4.86933 19.4061 5.068 19.2044C5.26668 19.0028 5.53671 18.8874 5.81975 18.8832H18.4612C18.7443 18.8873 19.0144 19.0026 19.2132 19.2043C19.4119 19.406 19.5233 19.6777 19.5233 19.9609C19.5233 20.244 19.4119 20.5158 19.2132 20.7174C19.0144 20.9191 18.7443 21.0344 18.4611 21.0385Z" fill="#222222"></path><path d="M14.2461 15.8556C14.0883 15.7082 13.9293 15.5609 13.7716 15.4136C13.3909 15.0604 13.0115 14.7058 12.6309 14.3525C12.172 13.9262 11.7145 13.4999 11.2556 13.0736C10.858 12.7034 10.4604 12.3332 10.0628 11.9643C9.86984 11.7844 9.67952 11.6006 9.48267 11.4246C9.48006 11.422 9.47746 11.4194 9.47485 11.4168C9.53873 11.5706 9.6026 11.7244 9.66518 11.8782C9.66518 11.7544 9.66518 11.6292 9.66518 11.5054C9.44747 11.7231 9.23107 11.9395 9.01337 12.1572C9.26627 12.1572 9.52048 12.1572 9.77338 12.1572C10.0341 12.1572 10.2974 12.1663 10.5582 12.1546C11.1617 12.1272 11.7666 11.9486 12.2737 11.6162C12.7626 11.2955 13.1823 10.8575 13.4548 10.3374C13.7351 9.80158 13.885 9.19149 13.8537 8.58531C13.8224 7.98695 13.6451 7.3912 13.3153 6.88801C12.992 6.39524 12.5475 5.97026 12.0208 5.69911C11.5241 5.4436 10.9792 5.30542 10.42 5.30542C9.85941 5.30542 9.29756 5.30542 8.737 5.30542C8.71875 5.30542 8.70181 5.30542 8.68356 5.30542C8.51669 5.30542 8.34071 5.37842 8.22208 5.49575C8.10866 5.60916 8.02393 5.79427 8.03175 5.95723C8.03957 6.12539 8.09432 6.30008 8.22208 6.41871C8.34983 6.53603 8.50627 6.60903 8.68356 6.60903C9.23238 6.60903 9.7825 6.60903 10.3313 6.60903C10.4851 6.60903 10.639 6.61294 10.7915 6.6325C10.7341 6.62468 10.6755 6.61685 10.6181 6.60903C10.8632 6.64162 11.1018 6.7068 11.3299 6.80197C11.2777 6.77981 11.2256 6.75764 11.1748 6.73679C11.3977 6.83195 11.6063 6.95449 11.7979 7.1018C11.7536 7.0679 11.7105 7.03401 11.6662 7.00012C11.8513 7.14482 12.0169 7.31038 12.1616 7.49549C12.1277 7.45117 12.0938 7.40815 12.0599 7.36382C12.2072 7.55546 12.3298 7.76403 12.4249 7.98695C12.4028 7.93481 12.3806 7.88266 12.3597 7.83182C12.4549 8.05995 12.5201 8.29851 12.5527 8.54359C12.5449 8.48623 12.537 8.42757 12.5292 8.37021C12.5605 8.61008 12.5605 8.85385 12.5292 9.09372C12.537 9.03636 12.5449 8.9777 12.5527 8.92034C12.5201 9.16542 12.4549 9.40398 12.3597 9.63211C12.3819 9.57997 12.4041 9.52782 12.4249 9.47698C12.3298 9.6999 12.2072 9.90848 12.0599 10.1001C12.0938 10.0558 12.1277 10.0128 12.1616 9.96844C12.0169 10.1536 11.8513 10.3191 11.6662 10.4638C11.7105 10.4299 11.7536 10.396 11.7979 10.3621C11.6063 10.5094 11.3977 10.632 11.1748 10.7271C11.2269 10.705 11.279 10.6828 11.3299 10.662C11.1018 10.7571 10.8632 10.8223 10.6181 10.8549C10.6755 10.8471 10.7341 10.8393 10.7915 10.8314C10.5595 10.8614 10.3261 10.8549 10.0928 10.8549C9.80466 10.8549 9.51787 10.8549 9.22977 10.8549C9.15807 10.8549 9.08507 10.8549 9.01337 10.8549C8.6614 10.8549 8.36156 11.1534 8.36156 11.5067C8.36156 11.6279 8.36026 11.7492 8.36156 11.8704C8.36417 12.0581 8.44108 12.2367 8.57796 12.3645C8.6614 12.4414 8.74483 12.5196 8.82826 12.5965C9.19197 12.9342 9.55567 13.2731 9.91938 13.6107C10.4017 14.0592 10.8841 14.5076 11.3664 14.9574C11.8005 15.3615 12.2359 15.7656 12.67 16.1697C12.8851 16.3705 13.0989 16.5725 13.3153 16.7707C13.3179 16.7733 13.3218 16.7759 13.3244 16.7785C13.4496 16.8945 13.6125 16.9688 13.7859 16.9688C13.9462 16.9688 14.1366 16.8984 14.2474 16.7785C14.3608 16.6547 14.4455 16.4917 14.4377 16.317C14.4299 16.1476 14.3738 15.9742 14.2461 15.8556Z" fill="#222222"></path><path d="M8.67574 6.60809C8.90518 6.60809 9.13462 6.60809 9.36405 6.60809C9.91548 6.60809 10.4669 6.60809 11.0183 6.60809C11.6832 6.60809 12.3467 6.60809 13.0116 6.60809C13.5878 6.60809 14.164 6.60809 14.7401 6.60809C15.0204 6.60809 15.3007 6.612 15.5797 6.60809C15.5836 6.60809 15.5875 6.60809 15.5914 6.60809C15.7583 6.60809 15.9343 6.53508 16.0529 6.41776C16.1663 6.30434 16.251 6.11923 16.2432 5.95628C16.2354 5.78811 16.1806 5.61343 16.0529 5.4948C15.9251 5.37747 15.7687 5.30447 15.5914 5.30447C15.362 5.30447 15.1325 5.30447 14.9031 5.30447C14.3517 5.30447 13.8002 5.30447 13.2488 5.30447C12.584 5.30447 11.9204 5.30447 11.2556 5.30447C10.6794 5.30447 10.1032 5.30447 9.527 5.30447C9.24673 5.30447 8.96645 5.30056 8.68748 5.30447C8.68357 5.30447 8.67966 5.30447 8.67574 5.30447C8.50888 5.30447 8.33289 5.37747 8.21427 5.4948C8.10085 5.60821 8.01612 5.79333 8.02394 5.95628C8.03176 6.12444 8.08651 6.29913 8.21427 6.41776C8.34202 6.53508 8.49976 6.60809 8.67574 6.60809Z" fill="#222222"></path><path d="M8.67574 9.3825C8.90518 9.3825 9.13462 9.3825 9.36405 9.3825C9.91548 9.3825 10.4669 9.3825 11.0183 9.3825C11.6832 9.3825 12.3467 9.3825 13.0116 9.3825C13.5878 9.3825 14.164 9.3825 14.7401 9.3825C15.0204 9.3825 15.3007 9.38641 15.5797 9.3825C15.5836 9.3825 15.5875 9.3825 15.5914 9.3825C15.7583 9.3825 15.9343 9.3095 16.0529 9.19217C16.1663 9.07876 16.251 8.89364 16.2432 8.73069C16.2354 8.56253 16.1806 8.38784 16.0529 8.26921C15.9251 8.15189 15.7687 8.07889 15.5914 8.07889C15.362 8.07889 15.1325 8.07889 14.9031 8.07889C14.3517 8.07889 13.8002 8.07889 13.2488 8.07889C12.584 8.07889 11.9204 8.07889 11.2556 8.07889C10.6794 8.07889 10.1032 8.07889 9.527 8.07889C9.24673 8.07889 8.96645 8.07498 8.68748 8.07889C8.68357 8.07889 8.67966 8.07889 8.67574 8.07889C8.50888 8.07889 8.33289 8.15189 8.21427 8.26921C8.10085 8.38263 8.01612 8.56774 8.02394 8.73069C8.03176 8.89886 8.08651 9.07354 8.21427 9.19217C8.34202 9.30819 8.49976 9.3825 8.67574 9.3825Z" fill="#222222"></path></svg>