<svg xmlns="http://www.w3.org/2000/svg" width="34" height="34" viewBox="0 0 34 34" fill="none"><path fill-rule="evenodd" clip-rule="evenodd" d="M15.9325 4.20001C15.9325 2.4336 14.4989 1 12.7325 1H4.20001C2.4336 1 1 2.4336 1 4.20001V17C1 18.7665 2.4336 20.2001 4.20001 20.2001H12.7325C14.4989 20.2001 15.9325 18.7665 15.9325 17V4.20001ZM13.8 4.20001V17C13.8 17.5889 13.3213 18.0667 12.7325 18.0667H4.20001C3.61121 18.0667 3.13249 17.5889 3.13249 17V4.20001C3.13249 3.61121 3.61121 3.13334 4.20001 3.13334H12.7325C13.3213 3.13334 13.8 3.61121 13.8 4.20001Z" fill="#222222" stroke="#222222" stroke-width="0.2"></path><path fill-rule="evenodd" clip-rule="evenodd" d="M15.9325 25.5333C15.9325 23.7669 14.4989 22.3333 12.7325 22.3333H4.20001C2.4336 22.3333 1 23.7669 1 25.5333V29.7999C1 31.5663 2.4336 33 4.20001 33H12.7325C14.4989 33 15.9325 31.5663 15.9325 29.7999V25.5333ZM13.8 25.5333V29.7999C13.8 30.3887 13.3213 30.8666 12.7325 30.8666H4.20001C3.61121 30.8666 3.13249 30.3887 3.13249 29.7999V25.5333C3.13249 24.9445 3.61121 24.4666 4.20001 24.4666H12.7325C13.3213 24.4666 13.8 24.9445 13.8 25.5333Z" fill="#222222" stroke="#222222" stroke-width="0.2"></path><path fill-rule="evenodd" clip-rule="evenodd" d="M33.0028 4.19922C33.0028 2.43409 31.5692 1.00049 29.8028 1.00049H21.2703C19.5039 1.00049 18.0703 2.43409 18.0703 4.19922V29.801C18.0703 31.5661 19.5039 32.9997 21.2703 32.9997H29.8028C31.5692 32.9997 33.0028 31.5661 33.0028 29.801V4.19922ZM30.8704 4.19922V29.801C30.8704 30.3894 30.3916 30.8672 29.8028 30.8672H21.2703C20.6815 30.8672 20.2028 30.3894 20.2028 29.801V4.19922C20.2028 3.61084 20.6815 3.13298 21.2703 3.13298H29.8028C30.3916 3.13298 30.8704 3.61084 30.8704 4.19922Z" fill="#222222" stroke="#222222" stroke-width="0.2"></path></svg>