<svg xmlns="http://www.w3.org/2000/svg" width="24" height="33" viewBox="0 0 24 33" fill="none"><path d="M22.9778 7.11725L17.0528 1.19225C16.964 1.10338 16.8161 1.04761 16.7036 1.04761H3.17064C2.08146 1.04761 1.19531 1.93376 1.19531 3.02294V30.6772C1.19531 31.7664 2.08146 32.6525 3.17064 32.6525H21.1471C22.2363 32.6525 23.1224 31.7664 23.1224 30.6772V7.4664C23.1224 7.36855 23.0715 7.21101 22.9778 7.11725ZM21.4365 6.97254H18.1852C17.6405 6.97254 17.1975 6.52962 17.1975 5.98487V2.73352L21.4365 6.97254ZM21.1472 31.6648H3.17064C2.62596 31.6648 2.18298 31.2219 2.18298 30.6772V3.02287C2.18298 2.47819 2.6259 2.03521 3.17064 2.03521H16.2098V5.98487C16.2098 7.07405 17.0959 7.9602 18.1851 7.9602H22.1348V30.6772C22.1348 31.2219 21.6918 31.6648 21.1472 31.6648Z" fill="#222222" stroke="#222222" stroke-width="0.2"></path><path fill-rule="evenodd" clip-rule="evenodd" d="M1 3.02296C1 1.82469 1.97459 0.850098 3.17286 0.850098H16.7058C16.8679 0.850098 17.0669 0.924733 17.1947 1.0526L23.1197 6.97759C23.1913 7.04924 23.2405 7.13816 23.2718 7.2192C23.3028 7.29973 23.3222 7.38791 23.3222 7.46642V30.6772C23.3222 31.8755 22.3476 32.8501 21.1493 32.8501H3.17286C1.97459 32.8501 1 31.8755 1 30.6772V3.02296ZM3.17286 1.24516C2.19278 1.24516 1.39506 2.04287 1.39506 3.02296V30.6772C1.39506 31.6573 2.19278 32.455 3.17286 32.455H21.1493C22.1294 32.455 22.9271 31.6573 22.9271 30.6772V7.46642C22.9271 7.44708 22.921 7.40756 22.9032 7.36142C22.8856 7.31579 22.8624 7.27906 22.8403 7.25694L16.9153 1.33195C16.8656 1.28214 16.7687 1.24516 16.7058 1.24516H3.17286ZM3.17286 2.23276C2.73722 2.23276 2.38273 2.5873 2.38273 3.02289V30.6772C2.38273 31.1128 2.73726 31.4673 3.17286 31.4673H21.1494C21.585 31.4673 21.9394 31.1128 21.9394 30.6772V8.15775H18.1873C16.989 8.15775 16.0144 7.18316 16.0144 5.9849V2.23276H3.17286ZM1.98766 3.02289C1.98766 2.36913 2.51901 1.8377 3.17286 1.8377H16.4095V5.9849C16.4095 6.96498 17.2072 7.76269 18.1873 7.76269H22.3345V30.6772C22.3345 31.331 21.8031 31.8624 21.1494 31.8624H3.17286C2.51909 31.8624 1.98766 31.331 1.98766 30.6772V3.02289ZM17.0022 2.25666L21.9156 7.17009H18.1874C17.5336 7.17009 17.0022 6.63874 17.0022 5.9849V2.25666ZM17.3972 3.21042V5.9849C17.3972 6.42054 17.7518 6.77503 18.1874 6.77503H20.9618L17.3972 3.21042Z" fill="#222222" stroke="#222222" stroke-width="0.2"></path><path d="M8.72527 16.9858C11.2467 16.9858 13.298 14.9345 13.298 12.413C13.298 12.1403 13.0769 11.9192 12.8042 11.9192H9.21913V8.33389C9.21913 8.06115 8.99801 7.84009 8.72533 7.84009C6.2039 7.84009 4.15234 9.89158 4.15234 12.4131C4.15234 14.9346 6.20384 16.9858 8.72527 16.9858ZM8.23147 8.86171V12.413C8.23147 12.6858 8.45259 12.9068 8.72527 12.9068H12.2763C12.0352 14.6509 10.5347 15.998 8.72527 15.998C6.74827 15.998 5.13995 14.3897 5.13995 12.413C5.14001 10.6036 6.48736 9.10285 8.23147 8.86171Z" fill="#222222" stroke="#222222" stroke-width="0.2"></path><path fill-rule="evenodd" clip-rule="evenodd" d="M3.95312 12.4133C3.95312 9.78275 6.09312 7.64282 8.72364 7.64282C9.1054 7.64282 9.41498 7.9523 9.41498 8.33415V11.7219H12.8025C13.1843 11.7219 13.4939 12.0314 13.4939 12.4133C13.4939 15.0439 11.3541 17.1836 8.72358 17.1836C6.09307 17.1836 3.95312 15.0439 3.95312 12.4133ZM8.72364 8.03788C6.3113 8.03788 4.34819 10.0009 4.34819 12.4133C4.34819 14.8257 6.31123 16.7885 8.72358 16.7885C11.1359 16.7885 13.0988 14.8257 13.0988 12.4133C13.0988 12.2496 12.9661 12.117 12.8025 12.117H9.01992V8.33415C9.01992 8.17052 8.88725 8.03788 8.72364 8.03788ZM8.42731 8.63526V12.4133C8.42731 12.5769 8.55998 12.7096 8.72358 12.7096H12.5014L12.4703 12.9341C12.2159 14.7744 10.6331 16.1958 8.72358 16.1958C6.6375 16.1958 4.94073 14.4991 4.94073 12.4132C4.94079 10.5038 6.36236 8.92075 8.20273 8.66631L8.42731 8.63526ZM5.33579 12.4132C5.33585 10.7824 6.49473 9.41638 8.03225 9.09649L5.33579 12.4132ZM8.03225 9.09649V12.4133C8.03225 12.7951 8.34182 13.1046 8.72358 13.1046H12.0401C11.7202 14.6421 10.3544 15.8008 8.72358 15.8008C6.85567 15.8008 5.33579 14.2809 5.33579 12.4132" fill="#222222"></path><path d="M5.33579 12.4132C5.33585 10.7824 6.49473 9.41638 8.03225 9.09649M5.33579 12.4132L8.03225 9.09649M5.33579 12.4132C5.33579 14.2809 6.85567 15.8008 8.72358 15.8008C10.3544 15.8008 11.7202 14.6421 12.0401 13.1046H8.72358C8.34182 13.1046 8.03225 12.7951 8.03225 12.4133V9.09649M8.72364 7.64282C6.09312 7.64282 3.95312 9.78275 3.95312 12.4133C3.95312 15.0439 6.09307 17.1836 8.72358 17.1836C11.3541 17.1836 13.4939 15.0439 13.4939 12.4133C13.4939 12.0314 13.1843 11.7219 12.8025 11.7219H9.41498V8.33415C9.41498 7.9523 9.1054 7.64282 8.72364 7.64282ZM4.34819 12.4133C4.34819 10.0009 6.3113 8.03788 8.72364 8.03788C8.88725 8.03788 9.01991 8.17052 9.01991 8.33415V12.117H12.8025C12.9661 12.117 13.0988 12.2496 13.0988 12.4133C13.0988 14.8257 11.1359 16.7885 8.72358 16.7885C6.31123 16.7885 4.34819 14.8257 4.34819 12.4133ZM8.42731 8.63526L8.20273 8.66631C6.36236 8.92075 4.94079 10.5038 4.94073 12.4132C4.94073 14.4991 6.6375 16.1958 8.72358 16.1958C10.6331 16.1958 12.2159 14.7744 12.4703 12.9341L12.5014 12.7096H8.72358C8.55998 12.7096 8.42731 12.5769 8.42731 12.4133V8.63526Z" stroke="#222222" stroke-width="0.2"></path><path d="M10.7634 10.8671H14.8423C15.115 10.8671 15.3361 10.646 15.3361 10.3733C15.3361 7.85184 13.2848 5.80054 10.7633 5.80054C10.4906 5.80054 10.2695 6.02166 10.2695 6.29434V10.3732C10.2695 10.646 10.4907 10.8671 10.7634 10.8671ZM11.2572 6.82216C12.8397 7.04111 14.0955 8.29687 14.3144 9.87942H11.2572V6.82216Z" fill="#222222" stroke="#222222" stroke-width="0.2"></path><path fill-rule="evenodd" clip-rule="evenodd" d="M10.0742 6.2946C10.0742 5.91285 10.3837 5.60327 10.7656 5.60327C13.3961 5.60327 15.5358 7.74302 15.5358 10.3735C15.5358 10.7553 15.2263 11.0649 14.8445 11.0649H10.7656C10.3838 11.0649 10.0742 10.7553 10.0742 10.3735V6.2946ZM10.7656 5.99833C10.6019 5.99833 10.4693 6.131 10.4693 6.2946V10.3735C10.4693 10.5371 10.602 10.6698 10.7656 10.6698H14.8445C15.0081 10.6698 15.1408 10.5371 15.1408 10.3735C15.1408 7.9612 13.178 5.99833 10.7656 5.99833ZM11.0619 6.59569L11.2865 6.62676C12.9566 6.85783 14.2813 8.18246 14.5123 9.85261L14.5434 10.0772H11.0619V6.59569ZM11.4569 7.05696V9.68215H14.0821C13.8086 8.36816 12.7709 7.33049 11.4569 7.05696Z" fill="#222222" stroke="#222222" stroke-width="0.2"></path><path d="M14.8454 19.991H4.65396C4.38121 19.991 4.16016 20.2121 4.16016 20.4848C4.16016 20.7575 4.38128 20.9786 4.65396 20.9786H14.8454C15.1182 20.9786 15.3392 20.7574 15.3392 20.4848C15.3393 20.2121 15.1182 19.991 14.8454 19.991Z" fill="#222222" stroke="#222222" stroke-width="0.2"></path><path fill-rule="evenodd" clip-rule="evenodd" d="M3.95703 20.4845C3.95703 20.1028 4.26651 19.7932 4.64836 19.7932H14.8398C15.2216 19.7932 15.5312 20.1027 15.5312 20.4845M4.64836 20.1883C4.48473 20.1883 4.35209 20.3209 4.35209 20.4845C4.35209 20.6482 4.48476 20.7808 4.64836 20.7808H14.8398C15.0035 20.7808 15.1361 20.6481 15.1361 20.4845V20.4845C15.1361 20.321 15.0035 20.1883 14.8398 20.1883H4.64836ZM3.95703 20.4845C3.95703 20.8664 4.2666 21.1759 4.64836 21.1759L3.95703 20.4845ZM15.5312 20.4846C15.5311 20.8663 15.2217 21.1759 14.8398 21.1759H4.64836" fill="#222222"></path><path d="M3.95703 20.4845C3.95703 20.1028 4.26651 19.7932 4.64836 19.7932H14.8398C15.2216 19.7932 15.5312 20.1027 15.5312 20.4845H3.95703ZM3.95703 20.4845C3.95703 20.8664 4.2666 21.1759 4.64836 21.1759M3.95703 20.4845L4.64836 21.1759M4.64836 21.1759H14.8398C15.2217 21.1759 15.5311 20.8663 15.5312 20.4846L4.64836 21.1759ZM4.35209 20.4845C4.35209 20.3209 4.48473 20.1883 4.64836 20.1883H14.8398C15.0035 20.1883 15.1361 20.321 15.1361 20.4845V20.4845C15.1361 20.6481 15.0035 20.7808 14.8398 20.7808H4.64836C4.48476 20.7808 4.35209 20.6482 4.35209 20.4845Z" stroke="#222222" stroke-width="0.2"></path><path d="M19.6807 23.4514H4.65396C4.38121 23.4514 4.16016 23.6725 4.16016 23.9452C4.16016 24.218 4.38128 24.439 4.65396 24.439H19.6807C19.9535 24.439 20.1745 24.2179 20.1745 23.9452C20.1745 23.6725 19.9534 23.4514 19.6807 23.4514Z" fill="#222222" stroke="#222222" stroke-width="0.2"></path><path fill-rule="evenodd" clip-rule="evenodd" d="M3.95703 23.945C3.95703 23.5632 4.26651 23.2537 4.64836 23.2537H19.6751C20.0569 23.2537 20.3665 23.5632 20.3665 23.945C20.3665 24.3268 20.057 24.6363 19.6751 24.6363H4.64836C4.2666 24.6363 3.95703 24.3268 3.95703 23.945ZM4.64836 23.6487C4.48473 23.6487 4.35209 23.7814 4.35209 23.945C4.35209 24.1086 4.48476 24.2413 4.64836 24.2413H19.6751C19.8388 24.2413 19.9714 24.1086 19.9714 23.945C19.9714 23.7814 19.8387 23.6487 19.6751 23.6487H4.64836Z" fill="#222222" stroke="#222222" stroke-width="0.2"></path><path d="M19.6807 26.9116H4.65396C4.38121 26.9116 4.16016 27.1327 4.16016 27.4054C4.16016 27.6782 4.38128 27.8992 4.65396 27.8992H19.6807C19.9535 27.8992 20.1745 27.6781 20.1745 27.4054C20.1745 27.1327 19.9534 26.9116 19.6807 26.9116Z" fill="#222222" stroke="#222222" stroke-width="0.2"></path><path fill-rule="evenodd" clip-rule="evenodd" d="M3.95703 27.4057C3.95703 27.0239 4.26651 26.7144 4.64836 26.7144H19.6751C20.0569 26.7144 20.3665 27.0239 20.3665 27.4057C20.3665 27.7874 20.057 28.097 19.6751 28.097H4.64836C4.2666 28.097 3.95703 27.7875 3.95703 27.4057ZM4.64836 27.1094C4.48473 27.1094 4.35209 27.2421 4.35209 27.4057C4.35209 27.5693 4.48476 27.702 4.64836 27.702H19.6751C19.8388 27.702 19.9714 27.5693 19.9714 27.4057C19.9714 27.2421 19.8387 27.1094 19.6751 27.1094H4.64836Z" fill="#222222" stroke="#222222" stroke-width="0.2"></path></svg>