<svg xmlns="http://www.w3.org/2000/svg" width="131" height="28" viewBox="0 0 131 28" fill="none"><path fill-rule="evenodd" clip-rule="evenodd" d="M76.9953 1.24219L78.268 3.15116H75.7227L76.9953 1.24219ZM75.7227 3.15137H78.2679V12.6957H78.268L78.2679 12.6958V12.6962H78.2677L76.9953 14.6047L75.723 12.6962H75.7227V12.6957V3.15137Z" fill="white"></path><path fill-rule="evenodd" clip-rule="evenodd" d="M77.8179 0.8999L80.0672 1.34976L80.0674 1.34962L80.0676 1.34983L80.0676 1.34984L80.0676 1.34985L89.0659 10.3482L89.0659 10.3481V10.3482L89.0663 10.3486L89.0659 10.349L89.0659 12.1479L87.2669 12.148L87.2665 12.1484L78.2678 3.14965L78.2678 3.14965L78.2678 3.14964L78.2676 3.14941L78.2677 3.14926L77.8179 0.8999Z" fill="white"></path><path fill-rule="evenodd" clip-rule="evenodd" d="M76.9953 14.6035L78.268 16.5125H75.7227L76.9953 14.6035ZM75.7227 16.5127H78.2679V26.0571H78.268L78.2679 26.0571V26.0575H78.2677L76.9953 27.966L75.723 26.0575H75.7227V26.0571V16.5127Z" fill="white"></path><path fill-rule="evenodd" clip-rule="evenodd" d="M90.675 1.24219L91.9477 3.15116H89.4023L90.675 1.24219ZM89.4023 3.15137H91.9476V12.6957H91.9477L91.9476 12.6958V12.6962H91.9473L90.675 14.6047L89.4027 12.6962H89.4023V12.6957V3.15137Z" fill="white"></path><path fill-rule="evenodd" clip-rule="evenodd" d="M90.675 14.6035L91.9477 16.5125H89.4023L90.675 14.6035ZM89.4023 16.5127H91.9476V26.0571H91.9477L91.9476 26.0571V26.0575H91.9473L90.675 27.966L89.4027 26.0575H89.4023V26.0571V16.5127Z" fill="white"></path><path fill-rule="evenodd" clip-rule="evenodd" d="M19.7258 2.54395L20.9984 4.45291H18.4531L19.7258 2.54395ZM18.4531 4.45312H20.9984V12.7248H20.9984L20.9984 12.7249V12.7253H20.9981L19.7258 14.6338L18.4535 12.7253H18.4531V12.7248V4.45312Z" fill="white"></path><path fill-rule="evenodd" clip-rule="evenodd" d="M33.7219 2.54395L34.9945 4.45291H32.4492L33.7219 2.54395ZM32.4492 4.45312H34.9945V12.7248H34.9945L34.9945 12.7249V12.7253H34.9942L33.7219 14.6338L32.4496 12.7253H32.4492V12.7248V4.45312Z" fill="white"></path><path fill-rule="evenodd" clip-rule="evenodd" d="M19.7258 14.6348L20.9985 16.5437H18.4532L19.7258 14.6348ZM18.4531 16.5438H20.9984V24.8156H20.9985L20.9984 24.8157V24.816H20.9982L19.7258 26.7246L18.4534 24.816H18.4531V16.5438Z" fill="white"></path><path fill-rule="evenodd" clip-rule="evenodd" d="M33.724 14.6348L34.9967 16.5437H32.4514L33.724 14.6348ZM32.4512 16.5438H34.9965V24.8156H34.9967L34.9965 24.816V24.816H34.9964L33.724 26.7246L32.4516 24.816H32.4512V16.5438Z" fill="white"></path><path fill-rule="evenodd" clip-rule="evenodd" d="M19.7246 2.54472L21.6328 1.27257L21.6328 1.27209L21.6335 1.27209L21.6336 1.27207L21.6336 1.27209L31.8139 1.27209L31.8139 3.81738L21.6336 3.81738L21.6328 3.81738L21.6328 3.81688L19.7246 2.54472ZM31.8156 1.27207L33.7246 2.54472L31.8156 3.81738L31.8156 1.27207Z" fill="white"></path><path fill-rule="evenodd" clip-rule="evenodd" d="M19.7266 26.7254L21.6348 25.4532L21.6348 25.4528L21.6355 25.4528L21.6355 25.4527L21.6355 25.4528L31.8156 25.4528L31.8156 25.4527L31.8157 25.4528L31.8159 25.4528L31.8159 25.4529L33.7246 26.7254L31.8159 27.9979L31.8159 27.998L31.8156 27.998L21.6355 27.998L21.6348 27.998L21.6348 27.9975L19.7266 26.7254Z" fill="white"></path><path fill-rule="evenodd" clip-rule="evenodd" d="M95.7671 2.5457L97.0394 4.4541H97.0394V4.45421L97.0397 4.45467H97.0394V12.7263H94.4941V4.4541H94.4944L94.4941 1.27246L95.7671 2.5457ZM97.0394 12.7269L95.7668 14.6358L94.4941 12.7269H97.0394Z" fill="white"></path><path fill-rule="evenodd" clip-rule="evenodd" d="M95.7673 26.7258L97.0399 24.8168H94.4946L94.4943 27.999L95.7673 26.7258ZM94.4941 24.8165H97.0394V16.5446H97.0396L97.0394 16.5443V16.5443H97.0394L95.767 14.6356L94.4946 16.5443H94.4941V24.8165Z" fill="white"></path><path fill-rule="evenodd" clip-rule="evenodd" d="M109.765 2.5459L111.037 4.45487H108.492L109.765 2.5459ZM108.492 4.45508H111.037V12.7268H111.037L111.037 12.7268V12.7273H111.037L109.765 14.6357L108.493 12.7273H108.492V12.7268V4.45508Z" fill="white"></path><path fill-rule="evenodd" clip-rule="evenodd" d="M109.765 14.6357L111.038 16.5447H108.492L109.765 14.6357ZM108.492 16.5449H111.038V24.8171H111.037L109.765 26.7258L108.492 24.8171H108.492V24.8169L108.492 24.8168H108.492V16.5449Z" fill="white"></path><path fill-rule="evenodd" clip-rule="evenodd" d="M95.7659 2.5457L94.9495 2.16239L94.4941 1.27304L97.6748 1.27304L97.6748 1.27307L107.855 1.27307L107.855 3.81836L97.6748 3.81836L97.6738 3.81836L97.6738 3.81769L95.7659 2.5457ZM107.857 1.27304L109.766 2.5457L107.857 3.81836L107.857 1.27304Z" fill="white"></path><path fill-rule="evenodd" clip-rule="evenodd" d="M95.7659 26.7258L94.977 27.0197L94.4941 27.9984L97.6748 27.9984L97.6748 27.9984L107.855 27.9984L107.855 25.4531L97.6748 25.4531L97.6738 25.4531L97.6738 25.4538L95.7659 26.7258ZM107.857 27.9984L109.766 26.7258L107.857 25.4531L107.857 27.9984Z" fill="white"></path><path fill-rule="evenodd" clip-rule="evenodd" d="M38.8157 1.27246L40.0884 3.18143H37.543L38.8157 1.27246ZM37.543 3.18164H40.0883V12.7265H40.0879L38.8156 14.6349L37.5434 12.7265H37.543V12.726L37.543 12.7259H37.543V3.18164Z" fill="white"></path><path fill-rule="evenodd" clip-rule="evenodd" d="M52.8139 1.27246L54.0865 3.18143H51.5412L52.8139 1.27246ZM51.5412 3.18164H54.0865V12.7265H54.0859L52.8137 14.6349L51.5414 12.7265H51.5412V12.7262L51.541 12.7259H51.5412V3.18164Z" fill="white"></path><path fill-rule="evenodd" clip-rule="evenodd" d="M38.8157 14.6348L40.0884 16.5437H37.543L38.8157 14.6348ZM37.543 16.5438H40.0883V26.0881H40.0884L40.0883 26.0882V26.0886H40.088L38.8157 27.9971L37.5434 26.0886H37.543V16.5438Z" fill="white"></path><path fill-rule="evenodd" clip-rule="evenodd" d="M52.8139 14.6348L54.0865 16.5437H51.5412L52.8139 14.6348ZM51.541 16.5438H54.0863V26.0881H54.0865L54.0863 26.0885V26.0886H54.0862L52.8139 27.9971L51.5416 26.0886H51.541V16.5438Z" fill="white"></path><path fill-rule="evenodd" clip-rule="evenodd" d="M38.8145 14.6355L40.7227 13.3634L40.7227 13.3629L40.7234 13.3629L40.7234 13.3629L40.7234 13.3629L50.9038 13.3629L50.9038 15.9082L40.7234 15.9082L40.7227 15.9082L40.7227 15.9077L38.8145 14.6355ZM50.9055 13.3629L52.8145 14.6355L50.9055 15.9082L50.9055 13.3629Z" fill="white"></path><path fill-rule="evenodd" clip-rule="evenodd" d="M114.854 2.54472L116.762 1.27257L116.762 1.27209L116.762 1.27209L116.762 1.27207L116.762 1.27209L126.307 1.27209L126.307 3.81738L116.762 3.81738L116.762 3.81738L116.762 3.81688L114.854 2.54472ZM126.308 1.27207L128.217 2.54472L126.308 3.81738L126.308 1.27207Z" fill="white"></path><path fill-rule="evenodd" clip-rule="evenodd" d="M115.488 26.7244L117.396 25.4523L117.396 25.4518L117.397 25.4518L117.397 25.4518L117.397 25.4518L126.941 25.4518L126.941 27.9971L117.397 27.9971L117.396 27.9971L117.396 27.9966L115.488 26.7244ZM126.943 25.4518L128.852 26.7244L126.943 27.9971L126.943 25.4518Z" fill="white"></path><path fill-rule="evenodd" clip-rule="evenodd" d="M114.855 2.54492L116.127 4.45389H113.582L114.855 2.54492ZM113.582 4.4541H116.127V12.7258H116.127L116.127 12.7258V12.7263H116.127L114.855 14.6348L113.582 12.7263H113.582V12.7258V4.4541Z" fill="white"></path><path fill-rule="evenodd" clip-rule="evenodd" d="M128.853 14.6348L130.125 16.5437H127.58L128.853 14.6348ZM127.58 16.5438H130.125V24.816H130.125L128.853 26.7246L127.58 24.816H127.58V24.8158L127.58 24.8156H127.58V16.5438Z" fill="white"></path><path fill-rule="evenodd" clip-rule="evenodd" d="M114.854 14.6346L116.762 13.3624L116.762 13.3619L116.762 13.3619L116.762 13.3619L116.762 13.3619L126.943 13.3619L126.943 13.3618L126.943 13.3619L128.852 14.6344L126.943 15.9069L126.943 15.9072L116.762 15.9072L116.762 15.9067L114.854 14.6346Z" fill="white"></path><path fill-rule="evenodd" clip-rule="evenodd" d="M57.9035 14.6348L59.1762 16.5437H56.6309L57.9035 14.6348ZM59.1762 26.0881V26.0886H59.1758L57.9035 27.9971L56.6312 26.0886H56.6309V26.0881L56.6309 26.0881H56.6309V16.5438H59.1762V26.0881H59.1762L59.1762 26.0881Z" fill="white"></path><path fill-rule="evenodd" clip-rule="evenodd" d="M71.9035 14.6348L73.1762 16.5437H70.6309L71.9035 14.6348ZM70.6309 16.5438H73.1761V26.0881H73.1762L73.1761 26.0882V26.0886H73.1758L71.9035 27.9971L70.6312 26.0886H70.6309V16.5438Z" fill="white"></path><path fill-rule="evenodd" clip-rule="evenodd" d="M57.9035 2.54395L59.1762 4.45291H56.6309L57.9035 2.54395ZM56.6309 4.45312H59.1761V12.7248H59.1762L59.1761 12.7249V12.7253H59.1758L57.9035 14.6338L56.6312 12.7253H56.6309V12.7248V4.45312Z" fill="white"></path><path fill-rule="evenodd" clip-rule="evenodd" d="M71.9035 2.54395L73.1762 4.45291H70.6309L71.9035 2.54395ZM70.6309 4.45312H73.1761V12.7248H73.1762L73.1761 12.7249V12.7253H73.1758L71.9035 14.6338L70.6312 12.7253H70.6309V12.7248V4.45312Z" fill="white"></path><path fill-rule="evenodd" clip-rule="evenodd" d="M57.9043 2.54472L59.8125 1.27257L59.8125 1.27209L59.8132 1.27209L59.8133 1.27207L59.8133 1.27209L69.9936 1.27209L69.9936 3.81738L59.8133 3.81738L59.8125 3.81738L59.8125 3.81688L57.9043 2.54472ZM69.9953 1.27207L71.9043 2.54472L69.9953 3.81738L69.9953 1.27207Z" fill="white"></path><path fill-rule="evenodd" clip-rule="evenodd" d="M57.9043 14.6346L59.8125 13.3624L59.8125 13.3619L59.8132 13.3619L59.8133 13.3619L59.8133 13.3619L69.9934 13.3619L69.9934 13.3619L69.9934 13.3619L69.9936 13.3619L69.9936 13.3621L71.9023 14.6346L69.9936 15.9071L69.9936 15.9072L69.9934 15.9072L59.8125 15.9072L59.8125 15.9067L57.9043 14.6346Z" fill="white"></path><path fill-rule="evenodd" clip-rule="evenodd" d="M8.90742 2.54492L10.1801 4.45389H7.63477L8.90742 2.54492ZM7.63477 4.4541H10.18V13.3626H7.63477V4.4541ZM10.1801 13.3627L8.90742 15.2717L7.63477 13.3627H10.1801Z" fill="white"></path><path fill-rule="evenodd" clip-rule="evenodd" d="M8.91016 2.5457L10.8184 1.27355L10.8184 1.27307L10.8191 1.27307L10.8191 1.27304L10.8191 1.27307L15.9089 1.27307L15.9089 3.81836L10.8191 3.81836L10.8184 3.81836L10.8184 3.81785L8.91016 2.5457ZM15.9094 1.27304L17.8184 2.5457L15.9094 3.81836L15.9094 1.27304Z" fill="white"></path><path fill-rule="evenodd" clip-rule="evenodd" d="M-5.56295e-08 2.5457L1.9082 1.27355L1.9082 1.27307L1.90892 1.27307L1.90896 1.27304L1.90896 1.27307L6.99877 1.27307L6.99877 3.81836L1.90896 3.81836L1.9082 3.81836L1.9082 3.81785L-5.56295e-08 2.5457ZM6.99924 1.27304L8.9082 2.5457L6.99924 3.81836L6.99924 1.27304Z" fill="white"></path><path fill-rule="evenodd" clip-rule="evenodd" d="M8.90742 15.2725L10.1801 17.1814H7.63477L8.90742 15.2725ZM7.63477 17.1816H10.18V26.0901H10.1802L8.90753 27.9991L7.6349 26.0902H7.63477V17.1816Z" fill="white"></path><path fill-rule="evenodd" clip-rule="evenodd" d="M25.1523 18.0117L25.602 15.7632L23.3536 16.2129L26.9529 12.6135L26.9529 12.6135L26.9529 12.6135L26.9531 12.6133L26.9532 12.6134L29.2026 12.1636L28.7528 14.413L28.7529 14.4131L28.7527 14.4133L28.7527 14.4133L28.7527 14.4133L25.1533 18.0127L25.1523 18.0117Z" fill="#B5FF7B"></path></svg>