<svg xmlns="http://www.w3.org/2000/svg" width="29" height="34" viewBox="0 0 29 34" fill="none"><path d="M24.6358 6.12C24.0835 6.12 23.6358 5.67229 23.6358 5.12V2C23.6358 1.44772 23.1881 1 22.6358 1H2C1.44771 1 1 1.44772 1 2V26.88C1 27.4323 1.44772 27.88 2 27.88H5.12C5.67228 27.88 6.12 28.3277 6.12 28.88V32C6.12 32.5523 6.56772 33 7.12 33H27.7895C28.3418 33 28.7895 32.5523 28.7895 32V7.12C28.7895 6.56772 28.3418 6.12 27.7895 6.12H24.6358ZM3.44842 26.4316C2.89614 26.4316 2.44842 25.9839 2.44842 25.4316V3.44842C2.44842 2.89614 2.89614 2.44842 3.44842 2.44842H21.1874C21.7397 2.44842 22.1874 2.89614 22.1874 3.44842V5.12C22.1874 5.67228 21.7397 6.12 21.1874 6.12H7.12C6.56772 6.12 6.12 6.56772 6.12 7.12V25.4316C6.12 25.9839 5.67229 26.4316 5.12 26.4316H3.44842ZM27.3074 30.5516C27.3074 31.1039 26.8597 31.5516 26.3074 31.5516H8.56842C8.01614 31.5516 7.56842 31.1039 7.56842 30.5516V8.56842C7.56842 8.01614 8.01614 7.56842 8.56842 7.56842H26.3074C26.8597 7.56842 27.3074 8.01614 27.3074 8.56842V30.5516Z" fill="#222222" stroke="#222222" stroke-width="0.4"></path><path d="M23.1471 11.4421H11.7281C11.3281 11.4421 11.0039 11.7664 11.0039 12.1663C11.0039 12.5663 11.3281 12.8906 11.7281 12.8906H23.1471C23.547 12.8906 23.8713 12.5663 23.8713 12.1663C23.8713 11.7664 23.547 11.4421 23.1471 11.4421Z" fill="#222222" stroke="#222222" stroke-width="0.4"></path><path d="M23.1471 16.3601H11.7281C11.3281 16.3601 11.0039 16.6843 11.0039 17.0843C11.0039 17.4843 11.3281 17.8085 11.7281 17.8085H23.1471C23.547 17.8085 23.8713 17.4843 23.8713 17.0843C23.8713 16.6843 23.547 16.3601 23.1471 16.3601Z" fill="#222222" stroke="#222222" stroke-width="0.4"></path><path d="M23.1471 21.3115H11.7281C11.3281 21.3115 11.0039 21.6358 11.0039 22.0357C11.0039 22.4357 11.3281 22.7599 11.7281 22.7599H23.1471C23.547 22.7599 23.8713 22.4357 23.8713 22.0357C23.8713 21.6358 23.547 21.3115 23.1471 21.3115Z" fill="#222222" stroke="#222222" stroke-width="0.4"></path><path d="M23.1471 26.2295H11.7281C11.3281 26.2295 11.0039 26.5537 11.0039 26.9537C11.0039 27.3537 11.3281 27.6779 11.7281 27.6779H23.1471C23.547 27.6779 23.8713 27.3537 23.8713 26.9537C23.8713 26.5537 23.547 26.2295 23.1471 26.2295Z" fill="#222222" stroke="#222222" stroke-width="0.4"></path></svg>