<svg xmlns="http://www.w3.org/2000/svg" width="259" height="20" viewBox="0 0 259 20" fill="none"><path fill-rule="evenodd" clip-rule="evenodd" d="M11.5062 0.673484L13.7912 5.3035C13.967 5.65991 14.3074 5.90728 14.7006 5.96412L19.8103 6.7066C20.8009 6.85066 21.1966 8.06822 20.4799 8.76709L16.7825 12.3712C16.498 12.6486 16.3679 13.0486 16.4351 13.4404L17.308 18.5294C17.4771 19.516 16.4415 20.2685 15.5553 19.8027L10.985 17.4001C10.6332 17.2153 10.2128 17.2153 9.86073 17.4001L5.29076 19.8027C4.40458 20.2685 3.36898 19.516 3.53806 18.5294L4.41102 13.4404C4.47822 13.0486 4.34846 12.6486 4.06355 12.3712L0.366184 8.76709C-0.350912 8.06822 0.0448127 6.85066 1.03573 6.7066L6.14549 5.96412C6.53907 5.90692 6.87903 5.65991 7.05491 5.3035L9.33989 0.673484C9.78316 -0.224495 11.0633 -0.224495 11.5062 0.673484Z" fill="#F9D722"></path><path fill-rule="evenodd" clip-rule="evenodd" d="M39.2408 0.673484L41.5257 5.3035C41.7016 5.65991 42.0419 5.90728 42.4352 5.96412L47.5449 6.7066C48.5355 6.85066 48.9312 8.06822 48.2145 8.76709L44.5171 12.3712C44.2325 12.6486 44.1024 13.0486 44.1696 13.4404L45.0426 18.5294C45.2117 19.516 44.1761 20.2685 43.2899 19.8027L38.7196 17.4001C38.3678 17.2153 37.9471 17.2153 37.5953 17.4001L33.025 19.8027C32.1388 20.2685 31.1032 19.516 31.2723 18.5294L32.1452 13.4404C32.2124 13.0486 32.0823 12.6486 31.7978 12.3712L28.1004 8.76709C27.3837 8.06822 27.779 6.85066 28.77 6.7066L33.8797 5.96412C34.2733 5.90692 34.6132 5.65991 34.7891 5.3035L37.0741 0.673484C37.5174 -0.224495 38.7975 -0.224495 39.2408 0.673484Z" fill="#F9D722"></path><path fill-rule="evenodd" clip-rule="evenodd" d="M66.971 0.673484L69.2564 5.3035C69.4322 5.65991 69.7726 5.90728 70.1658 5.96412L75.2755 6.7066C76.2661 6.85066 76.6618 8.06822 75.9451 8.76709L72.2477 12.3712C71.9632 12.6486 71.8331 13.0486 71.9003 13.4404L72.7732 18.5294C72.9423 19.516 71.9067 20.2685 71.0205 19.8027L66.4502 17.4001C66.0984 17.2153 65.6777 17.2153 65.3259 17.4001L60.7556 19.8027C59.8694 20.2685 58.8338 19.516 59.0029 18.5294L59.8759 13.4404C59.9431 13.0486 59.8133 12.6486 59.5284 12.3712L55.831 8.76709C55.1139 8.06822 55.5097 6.85066 56.5006 6.7066L61.6103 5.96412C62.0039 5.90692 62.3439 5.65991 62.5197 5.3035L64.8047 0.673484C65.2476 -0.224495 66.5281 -0.224495 66.971 0.673484Z" fill="#F9D722"></path><path fill-rule="evenodd" clip-rule="evenodd" d="M94.7058 0.673484L96.9907 5.3035C97.1666 5.65991 97.5069 5.90728 97.9002 5.96412L103.01 6.7066C104 6.85066 104.396 8.06822 103.679 8.76709L99.9821 12.3712C99.6976 12.6486 99.5674 13.0486 99.6346 13.4404L100.508 18.5294C100.677 19.516 99.6411 20.2685 98.7549 19.8027L94.1846 17.4001C93.8328 17.2153 93.4121 17.2153 93.0603 17.4001L88.49 19.8027C87.6038 20.2685 86.5682 19.516 86.7373 18.5294L87.6102 13.4404C87.6774 13.0486 87.5473 12.6486 87.2628 12.3712L83.5654 8.76709C82.8483 8.06822 83.244 6.85066 84.235 6.7066L89.3447 5.96412C89.7383 5.90692 90.0782 5.65991 90.2541 5.3035L92.5391 0.673484C92.9827 -0.224495 94.2629 -0.224495 94.7058 0.673484Z" fill="#F9D722"></path><path fill-rule="evenodd" clip-rule="evenodd" d="M122.342 0.729148L124.627 5.35917C124.803 5.71557 125.144 5.96295 125.537 6.01978L130.646 6.76226C131.637 6.90632 132.033 8.12389 131.316 8.82275L127.619 12.4268C127.334 12.7042 127.204 13.1042 127.271 13.496L128.144 18.585C128.313 19.5717 127.278 20.3242 126.391 19.8584L121.821 17.4558C121.469 17.271 121.049 17.271 120.697 17.4558L116.127 19.8584C115.24 20.3242 114.205 19.5717 114.374 18.585L115.247 13.496C115.314 13.1042 115.184 12.7042 114.899 12.4268L111.202 8.82275C110.485 8.12389 110.881 6.90632 111.872 6.76226L116.981 6.01978C117.375 5.96259 117.715 5.71557 117.891 5.35917L120.176 0.729148C120.619 -0.16883 121.899 -0.16883 122.342 0.729148Z" fill="black" fill-opacity="0.1"></path><path fill-rule="evenodd" clip-rule="evenodd" d="M121.11 0.0561523C120.733 0.103075 120.375 0.324414 120.18 0.720168L117.895 5.35019C117.719 5.70659 117.379 5.95361 116.985 6.01081L111.875 6.75328C110.884 6.89734 110.489 8.11491 111.206 8.81377L114.903 12.4178C115.188 12.6952 115.318 13.0952 115.251 13.487L114.378 18.5761C114.209 19.5627 115.244 20.3152 116.13 19.8494L120.701 17.4468C120.83 17.3788 120.969 17.3359 121.11 17.3179V0.0561523Z" fill="#F9D722"></path><path d="M143.424 4.3H140.384V2.54H145.304V17H143.424V4.3ZM152.731 17.24C149.771 17.24 147.851 15.36 147.851 12.48H149.791C149.791 14.34 150.931 15.48 152.771 15.48C154.731 15.48 155.991 14.18 155.991 12.22C155.991 10.36 154.811 8.98 152.791 8.98C151.571 8.98 150.451 9.56 149.791 10.38L148.131 9.96L149.891 2.54H157.131V4.34H151.311L150.351 8.18C151.111 7.6 152.071 7.3 153.151 7.3C156.091 7.3 157.991 9.36 157.991 12.14C157.991 15.14 155.851 17.24 152.731 17.24ZM159.687 9.78C159.687 5.3 162.007 2.26 165.647 2.26C169.267 2.26 171.587 5.3 171.587 9.78C171.587 14.28 169.367 17.26 165.647 17.26C161.907 17.26 159.687 14.28 159.687 9.78ZM161.627 9.78C161.627 13.34 163.107 15.5 165.647 15.5C168.187 15.5 169.647 13.34 169.647 9.78C169.647 6.18 168.187 4.02 165.647 4.02C163.107 4.02 161.627 6.18 161.627 9.78ZM174.174 9.46H178.374V5.26H179.974V9.46H184.174V11.06H179.974V15.28H178.374V11.06H174.174V9.46ZM198.206 7.14V8.86H197.366C195.586 8.86 194.486 9.94 194.486 11.82V17H192.606V7.24H194.366L194.486 8.72C194.886 7.7 195.866 7.02 197.206 7.02C197.546 7.02 197.826 7.06 198.206 7.14ZM203.838 17.24C200.958 17.24 198.978 15.16 198.978 12.12C198.978 9.06 200.918 6.94 203.758 6.94C206.538 6.94 208.358 8.86 208.358 11.76V12.46L200.798 12.48C200.938 14.54 202.018 15.68 203.878 15.68C205.338 15.68 206.298 15.08 206.618 13.96H208.378C207.898 16.06 206.258 17.24 203.838 17.24ZM203.758 8.52C202.118 8.52 201.078 9.5 200.838 11.22H206.478C206.478 9.6 205.418 8.52 203.758 8.52ZM212.866 17L208.926 7.22H210.926L213.066 12.68C213.406 13.6 213.686 14.42 213.846 15.02C214.006 14.38 214.326 13.54 214.666 12.68L216.846 7.22H218.806L214.726 17H212.866ZM221.221 4.9C220.541 4.9 219.981 4.34 219.981 3.66C219.981 2.96 220.541 2.42 221.221 2.42C221.901 2.42 222.461 2.96 222.461 3.66C222.461 4.34 221.901 4.9 221.221 4.9ZM220.301 17V7.22H222.181V17H220.301ZM229.131 17.24C226.251 17.24 224.271 15.16 224.271 12.12C224.271 9.06 226.211 6.94 229.051 6.94C231.831 6.94 233.651 8.86 233.651 11.76V12.46L226.091 12.48C226.231 14.54 227.311 15.68 229.171 15.68C230.631 15.68 231.591 15.08 231.911 13.96H233.671C233.191 16.06 231.551 17.24 229.131 17.24ZM229.051 8.52C227.411 8.52 226.371 9.5 226.131 11.22H231.771C231.771 9.6 230.711 8.52 229.051 8.52ZM237.519 17L234.319 7.22H236.259L237.879 12.3C238.099 13.02 238.299 13.76 238.479 14.62C238.639 13.76 238.899 12.94 239.119 12.3L240.759 7.22H242.679L244.299 12.3C244.459 12.78 244.779 13.92 244.939 14.62C245.099 13.84 245.279 13.16 245.559 12.3L247.199 7.22H249.159L245.819 17H244.039L242.339 11.76C242.019 10.78 241.819 10.02 241.719 9.48C241.619 9.96 241.439 10.6 241.079 11.78L239.379 17H237.519ZM249.833 14.16H251.633C251.633 15.16 252.393 15.76 253.633 15.76C254.953 15.76 255.713 15.22 255.713 14.32C255.713 13.66 255.393 13.26 254.373 13L252.653 12.6C250.913 12.18 250.093 11.32 250.093 9.88C250.093 8.08 251.613 6.94 253.773 6.94C255.913 6.94 257.313 8.14 257.353 10H255.553C255.513 9.02 254.853 8.4 253.713 8.4C252.533 8.4 251.873 8.92 251.873 9.82C251.873 10.48 252.353 10.92 253.313 11.16L255.033 11.58C256.693 11.98 257.513 12.74 257.513 14.2C257.513 16.06 255.913 17.24 253.593 17.24C251.293 17.24 249.833 16.02 249.833 14.16Z" fill="#535B62"></path></svg>