<svg xmlns="http://www.w3.org/2000/svg" width="182" height="49" viewBox="0 0 182 49" fill="none"><mask id="mask0_2726_5159" style="mask-type:luminance" maskUnits="userSpaceOnUse" x="0" y="0" width="182" height="49"><path d="M181.342 0H0V48.7465H181.342V0Z" fill="white"></path></mask><g mask="url(#mask0_2726_5159)"><path d="M34.4038 26.6764C40.4096 26.6764 45.2201 31.4869 45.2201 37.5219C45.2201 43.0321 40.9053 48.3382 34.3455 48.3382C28.0481 48.3382 23.5 43.3237 23.5 37.4928C23.5 31.4577 28.3396 26.6472 34.4038 26.6472V26.6764Z" fill="#EAC360"></path><path d="M10.9038 26.6765C16.9097 26.6765 21.7202 31.487 21.7202 37.522C21.7202 43.0323 17.4053 48.3383 10.8456 48.3383C4.54812 48.3675 0 43.3238 0 37.522C0 31.487 4.83967 26.6765 10.9038 26.6765Z" fill="#F16365"></path><path d="M68.7486 37.5221C68.836 43.3822 63.909 48.3093 57.9323 48.3093C52.0722 48.3093 46.9701 43.4405 47.145 37.1723C47.3199 31.4579 52.1013 26.4725 58.3987 26.7057C64.1713 26.939 68.8069 31.7495 68.7194 37.5221H68.7486Z" fill="#65B26E"></path><path d="M69.8828 22.2159V0.408163C69.8828 0.408163 69.9994 0.349854 70.0286 0.349854C73.6146 0.349854 77.2005 0.349854 80.7866 0.408163C82.011 0.408163 83.2064 0.728861 84.2851 1.34111C86.2677 2.47814 86.9382 4.28573 86.7924 6.47233C86.6467 8.5423 85.6263 10.0292 83.6729 10.8163C83.5563 10.8746 83.4688 10.9038 83.2356 10.9913C84.3434 11.3703 85.2764 11.866 85.9762 12.6822C88.775 15.9767 87.084 20.9622 82.7982 21.9534C82.0694 22.1284 81.3405 22.2159 80.6117 22.245C77.1714 22.245 73.7312 22.245 70.2909 22.245C70.1743 22.245 70.0577 22.245 69.8828 22.245V22.2159ZM75.2181 17.8717C76.7341 17.8717 78.1627 17.9301 79.6204 17.8717C80.8158 17.8134 81.5447 17.2012 81.7778 16.2683C82.2152 14.5481 81.2239 13.1779 79.3871 13.0904C78.0461 13.0321 76.705 13.0904 75.3638 13.0904C75.3055 13.0904 75.2472 13.1487 75.2181 13.1779V17.9301V17.8717ZM75.2181 9.21287C76.6758 9.21287 78.0752 9.27116 79.4746 9.21287C80.2326 9.18368 80.874 8.77553 81.1948 7.98837C81.8653 6.32655 80.9323 4.78135 79.1539 4.66474C77.9294 4.60643 76.7341 4.66474 75.5096 4.66474C75.4221 4.66474 75.3346 4.72304 75.2181 4.72304V9.24197V9.21287Z" fill="white"></path><path d="M103.589 0C110.12 0 114.814 5.10206 114.639 11.6036C114.463 17.726 109.711 22.624 103.269 22.4782C97.1749 22.3325 92.3063 17.4636 92.4811 10.6997C92.6561 4.7522 97.4668 0 103.589 0ZM97.9037 11.2246C97.9624 11.8076 97.9918 12.4198 98.1084 13.003C98.604 15.6561 100.615 17.3761 103.269 17.4928C106.067 17.6094 108.224 16.0642 108.953 13.4112C109.275 12.2158 109.332 11.0204 109.099 9.79595C108.72 7.6385 107.699 5.94754 105.513 5.27698C103.297 4.60643 101.198 4.86882 99.5366 6.6181C98.3121 7.9009 97.9624 9.50443 97.9331 11.2246H97.9037Z" fill="white"></path><path d="M47.1442 0.408317C47.1442 0.408317 47.2317 0.350008 47.29 0.350008C50.7885 0.379163 54.3163 0.262544 57.7856 0.495782C62.4504 0.787324 65.2201 5.0439 63.8207 9.4754C63.1793 11.4871 61.7507 12.7407 59.7973 13.4404C59.5933 13.5279 59.36 13.5862 59.0393 13.6737C59.914 15.1023 60.7594 16.5017 61.5758 17.9011C62.4213 19.3005 63.2668 20.7291 64.1997 22.2451H63.3833C61.8964 22.2451 60.4096 22.2451 58.9227 22.2451C58.4563 22.2451 58.1938 22.1285 57.9606 21.6912C56.6487 19.3588 55.3075 17.0556 53.9664 14.7232C53.4999 13.8777 53.4708 13.8777 52.3921 14.0527V22.1577H47.0859V0.408317H47.1442ZM52.4796 10.3209C53.7331 10.3209 54.9285 10.3209 56.0947 10.3209C56.2697 10.3209 56.4737 10.2917 56.6486 10.2334C58.0481 9.94188 58.7186 9.1255 58.7186 7.66781C58.7186 6.18093 58.0189 5.10221 56.6778 4.95644C55.3075 4.81066 53.9081 4.92728 52.4796 4.92728V10.3209Z" fill="white"></path><path d="M148.191 40.3499V48.484H142.914V26.6764C143.089 26.6764 143.264 26.6472 143.439 26.6472C146.442 26.6472 149.445 26.6472 152.477 26.6472C154.692 26.6472 156.733 27.2595 158.279 28.9504C161.573 32.5364 159.969 38.3673 155.334 39.796C155.188 39.8251 155.072 39.8834 154.868 39.9709C156.588 42.828 158.279 45.6561 160.057 48.5715C158.425 48.5715 156.938 48.5132 155.451 48.5715C154.489 48.6298 153.964 48.3091 153.497 47.4636C152.36 45.3062 151.048 43.2362 149.882 41.0787C149.503 40.379 149.036 40.1458 148.25 40.379L148.191 40.3499ZM148.22 31.137V36.5014C149.678 36.5014 151.078 36.5889 152.477 36.4724C153.002 36.414 153.614 36.035 153.964 35.5977C154.663 34.723 154.635 33.6443 154.226 32.5948C153.818 31.6035 152.972 31.1954 151.981 31.137C150.757 31.0787 149.503 31.137 148.22 31.137Z" fill="white"></path><path d="M123.088 26.7933C125.071 26.7933 126.995 26.7933 128.948 26.7933C129.123 26.7933 129.356 27.0849 129.415 27.2889C130.989 31.4872 132.534 35.6854 134.08 39.9129C135.042 42.5659 136.033 45.1899 136.995 47.843C137.053 48.047 137.112 48.222 137.199 48.4843C136.966 48.4843 136.82 48.5427 136.645 48.5427C135.129 48.5427 133.642 48.5427 132.127 48.5427C131.659 48.5427 131.485 48.3677 131.339 47.9595C131.019 46.9683 130.668 45.9771 130.348 44.9857C130.231 44.665 130.085 44.5193 129.736 44.5193C127.316 44.5193 124.925 44.5193 122.505 44.5193C122.126 44.5193 121.951 44.665 121.864 45.0149C121.543 46.0644 121.194 47.0849 120.815 48.1053C120.756 48.2802 120.493 48.5135 120.347 48.5135C118.627 48.5427 116.936 48.5135 115.07 48.5135C117.753 41.2248 120.435 33.9945 123.088 26.7642V26.7933ZM126.208 32.7408C126.208 32.7408 126.12 32.7408 126.091 32.7408C125.217 35.3064 124.342 37.9012 123.438 40.4959H128.831C127.957 37.8721 127.083 35.3355 126.208 32.7699V32.7408Z" fill="white"></path><path d="M35.1874 0.349854H40.4936C40.4936 0.553938 40.5228 0.758013 40.5228 0.962098C40.5228 4.86882 40.581 8.74638 40.5228 12.6531C40.5228 13.9651 40.377 15.3645 39.9688 16.6182C38.9192 19.9709 36.4703 21.8077 33.0592 22.3616C31.3973 22.6239 29.7356 22.5657 28.1029 22.0409C24.8084 20.9913 23.0883 18.6298 22.5052 15.3061C22.3886 14.6356 22.3594 13.9067 22.3594 13.207C22.3594 9.18368 22.3594 5.16036 22.3594 1.13703C22.3594 0.903794 22.3594 0.641395 22.3594 0.379008H27.6655V1.13703C27.6655 5.10206 27.6655 9.09621 27.6655 13.0612C27.6655 13.5569 27.6947 14.0526 27.8113 14.519C28.2778 16.589 29.5897 17.4927 31.8347 17.3762C33.6131 17.2887 34.8959 16.035 35.1 14.1108C35.1583 13.5277 35.2166 12.9155 35.2166 12.3324C35.2166 8.60061 35.2166 4.86882 35.2166 1.13703C35.2166 0.903794 35.2166 0.641395 35.2166 0.349854H35.1874Z" fill="white"></path><path d="M73.8509 41.9243H79.4195C79.5361 42.3033 79.6236 42.624 79.7402 42.9447C80.2942 44.2858 81.9851 44.9564 83.3263 44.3441C84.609 43.761 84.8715 41.9534 83.7636 41.0497C83.1804 40.554 82.4516 40.2333 81.7227 39.9126C80.1775 39.2713 78.6032 38.7464 77.0872 38.0467C74.8423 36.9972 73.7344 35.1313 73.7344 32.6531C73.7344 30.2333 74.7548 28.3382 76.9414 27.2887C80.1192 25.7726 83.3846 25.7726 86.5041 27.4636C88.5449 28.5424 89.507 30.4083 89.711 32.7697H83.9968C83.9385 32.5657 83.8801 32.3616 83.8218 32.1575C83.3846 30.8163 82.1309 30.175 80.7607 30.554C79.3612 30.9622 78.9239 32.7406 80.0318 33.761C80.4691 34.1691 80.9939 34.4608 81.5478 34.694C82.8306 35.2188 84.1717 35.6852 85.4545 36.21C86.0667 36.4432 86.679 36.7347 87.2329 37.0846C91.1688 39.5045 91.1105 45.2479 87.1454 47.6094C83.9676 49.5045 78.7198 49.038 75.921 46.5891C74.609 45.452 73.7636 43.557 73.8219 41.9534L73.8509 41.9243Z" fill="white"></path><path d="M100.581 30.8748H94.75V26.6765H111.835V30.8456H105.946V48.5133H100.581V30.8748Z" fill="white"></path><path d="M17.143 0.379089V4.57735H11.2537V22.1867H5.91839V4.60651H0V0.379089H17.143Z" fill="white"></path><path d="M175.453 48.5134H170.118V30.9041H164.258V26.7058H181.372V30.8749H175.483V48.5134H175.453Z" fill="white"></path></g></svg>