<svg xmlns="http://www.w3.org/2000/svg" width="121" height="92" viewBox="0 0 121 92" fill="none"><path d="M19.6234 41.9232C17.1073 44.4393 17.1073 48.5342 19.6234 51.075C22.1395 53.5911 26.2344 53.5911 28.7752 51.075C46.1907 33.6594 74.5342 33.6594 91.9497 51.075C93.2078 52.333 94.8605 52.9744 96.5133 52.9744C98.166 52.9744 99.8187 52.333 101.077 51.075C103.593 48.5588 103.593 44.464 101.077 41.9232C78.629 19.4507 42.0712 19.4507 19.6234 41.9232Z" fill="url(#paint0_linear_2075_376)"></path><path d="M37.0883 59.3879C34.5721 61.904 34.5721 65.9989 37.0883 68.5397C39.6044 71.0558 43.6993 71.0558 46.2401 68.5397C54.0104 60.7446 66.6897 60.7446 74.4601 68.5397C75.7182 69.7978 77.3709 70.4391 79.0237 70.4391C80.6764 70.4391 82.3292 69.7978 83.5872 68.5397C86.1034 66.0236 86.1034 61.9287 83.5872 59.4126C70.7846 46.5606 49.9156 46.5606 37.0883 59.3879Z" fill="url(#paint1_linear_2075_376)"></path><path d="M60.3493 91.2343C65.104 91.2343 68.9584 87.3799 68.9584 82.6252C68.9584 77.8705 65.104 74.0161 60.3493 74.0161C55.5947 74.0161 51.7402 77.8705 51.7402 82.6252C51.7402 87.3799 55.5947 91.2343 60.3493 91.2343Z" fill="url(#paint2_linear_2075_376)"></path><path d="M118.813 24.1622C86.572 -8.05407 34.128 -8.05407 1.88709 24.1622C-0.629031 26.6783 -0.629031 30.7732 1.88709 33.314C4.40322 35.8301 8.49809 35.8301 11.0389 33.314C38.2229 6.1053 82.4771 6.1053 109.686 33.314C110.944 34.5721 112.597 35.2134 114.249 35.2134C115.902 35.2134 117.555 34.5721 118.813 33.314C121.329 30.7979 121.329 26.703 118.813 24.1622Z" fill="url(#paint3_linear_2075_376)"></path><defs><linearGradient id="paint0_linear_2075_376" x1="60.3501" y1="25.0688" x2="60.3501" y2="52.9744" gradientUnits="userSpaceOnUse"><stop stop-color="#B5FF7B"></stop><stop offset="1" stop-color="#B5FF7B" stop-opacity="0.1"></stop></linearGradient><linearGradient id="paint1_linear_2075_376" x1="60.3378" y1="49.7705" x2="60.3378" y2="70.4391" gradientUnits="userSpaceOnUse"><stop stop-color="#B5FF7B"></stop><stop offset="1" stop-color="#B5FF7B" stop-opacity="0.1"></stop></linearGradient><linearGradient id="paint2_linear_2075_376" x1="60.3493" y1="74.0161" x2="60.3493" y2="91.2343" gradientUnits="userSpaceOnUse"><stop stop-color="#B5FF7B"></stop><stop offset="1" stop-color="#B5FF7B" stop-opacity="0.1"></stop></linearGradient><linearGradient id="paint3_linear_2075_376" x1="60.35" y1="0" x2="60.35" y2="35.2134" gradientUnits="userSpaceOnUse"><stop stop-color="#B5FF7B"></stop><stop offset="1" stop-color="#B5FF7B" stop-opacity="0.1"></stop></linearGradient></defs></svg>