<svg xmlns="http://www.w3.org/2000/svg" width="117" height="123" viewBox="0 0 117 123" fill="none"><path d="M28.193 31.0679C26.3732 32.8877 26.3732 35.8495 28.193 37.6872C30.0129 39.507 32.9746 39.507 34.8123 37.6872C47.4087 25.0909 67.9089 25.0909 80.5052 37.6872C81.4151 38.5971 82.6105 39.061 83.806 39.061C85.0014 39.061 86.1968 38.5971 87.1067 37.6872C88.9266 35.8673 88.9266 32.9056 87.1067 31.0679C70.8706 14.814 44.4291 14.814 28.193 31.0679Z" fill="url(#paint0_linear_2705_4820)"></path><path d="M40.8258 43.6997C39.006 45.5196 39.006 48.4813 40.8258 50.319C42.6457 52.1389 45.6074 52.1389 47.4451 50.319C53.0653 44.681 62.236 44.681 67.8562 50.319C68.7661 51.229 69.9615 51.6929 71.1569 51.6929C72.3523 51.6929 73.5477 51.229 74.4577 50.319C76.2775 48.4992 76.2775 45.5374 74.4577 43.7176C65.1978 34.422 50.1036 34.422 40.8258 43.6997Z" fill="url(#paint1_linear_2705_4820)"></path><path d="M99.9351 18.2217C76.6158 -5.07975 38.6841 -5.07975 15.3649 18.2217C13.545 20.0415 13.545 23.0033 15.3649 24.841C17.1848 26.6608 20.1465 26.6608 21.9842 24.841C41.6459 5.16145 73.6541 5.16145 93.3336 24.841C94.2436 25.7509 95.439 26.2148 96.6344 26.2148C97.8298 26.2148 99.0252 25.7509 99.9351 24.841C101.755 23.0211 101.755 20.0594 99.9351 18.2217Z" fill="url(#paint2_linear_2705_4820)"></path><path d="M86.1397 97.2237H102.104C100.447 103.823 96.0258 109.621 87.4233 109.621C76.969 109.621 68.4641 101.116 68.4641 90.6616C68.4641 80.2073 76.969 71.7019 87.4233 71.7019C91.2232 71.7019 94.8875 72.8201 98.0198 74.9361L105.366 64.061C100.056 60.4741 93.852 58.5781 87.4233 58.5781C69.7323 58.5781 55.3398 72.971 55.3398 90.662C55.3398 108.353 69.7323 122.746 87.4233 122.746C104.259 122.746 116.017 109.553 116.017 90.662V84.0999H86.1397V97.2237Z" fill="url(#paint3_linear_2705_4820)"></path><path d="M39.4584 58.5781H23.2172L0.0122492 97.6668L0 109.825H26.3342V122.72H39.4584V109.825H46.1679V96.7009H39.4584V58.5781ZM26.3342 96.7009H15.8484L26.3342 79.0375V96.7009Z" fill="url(#paint4_linear_2705_4820)"></path><defs><linearGradient id="paint0_linear_2705_4820" x1="57.6499" y1="18.8774" x2="57.6499" y2="39.061" gradientUnits="userSpaceOnUse"><stop stop-color="#828088"></stop><stop offset="1" stop-color="#5C5A63"></stop></linearGradient><linearGradient id="paint1_linear_2705_4820" x1="57.6417" y1="36.7437" x2="57.6417" y2="51.6929" gradientUnits="userSpaceOnUse"><stop stop-color="#828088"></stop><stop offset="1" stop-color="#5C5A63"></stop></linearGradient><linearGradient id="paint2_linear_2705_4820" x1="57.65" y1="0.745605" x2="57.65" y2="26.2148" gradientUnits="userSpaceOnUse"><stop stop-color="#828088"></stop><stop offset="1" stop-color="#5C5A63"></stop></linearGradient><linearGradient id="paint3_linear_2705_4820" x1="85.6784" y1="58.5781" x2="85.6784" y2="122.746" gradientUnits="userSpaceOnUse"><stop stop-color="#B5FF7B"></stop><stop offset="1" stop-color="#B5FF7B" stop-opacity="0"></stop></linearGradient><linearGradient id="paint4_linear_2705_4820" x1="23.0839" y1="58.5781" x2="23.0839" y2="122.72" gradientUnits="userSpaceOnUse"><stop stop-color="#B5FF7B"></stop><stop offset="1" stop-color="#B5FF7B" stop-opacity="0"></stop></linearGradient></defs></svg>